<svg width="26" height="23" viewBox="0 0 26 23" fill="none" xmlns="http://www.w3.org/2000/svg">
<g clip-path="url(#clip0_614_12957)">
<mask id="mask0_614_12957" style="mask-type:luminance" maskUnits="userSpaceOnUse" x="-759" y="-3136" width="1366" height="4646">
<path d="M-759 -3136H607V1510H-759V-3136Z" fill="white"/>
</mask>
<g mask="url(#mask0_614_12957)">
<path d="M12.1 22.3999C11.9667 22.3999 11.8333 22.3666 11.7 22.2999L0.6 10.2999C0.5 10.0999 0.5 9.8999 0.5 9.6999C0.6 9.4999 0.8 9.3999 1.1 9.3999H6.4C6.53333 9.3999 6.66667 9.46657 6.8 9.5999L10.5 13.7999C10.9 12.9999 11.7 11.4999 13 9.7999C15 7.1999 18.8 3.4999 25.2 0.0999014C25.4 -0.100099 25.7 -9.85563e-05 25.9 0.299901C26 0.499901 26 0.799901 25.8 0.999901C25.7 0.999901 23.3 2.9999 20.4 6.4999C17.8 9.7999 14.4 15.0999 12.7 21.9999C12.6 22.2999 12.4 22.3999 12.1 22.3999Z" fill="#FDE047"/>
</g>
</g>
<defs>
<clipPath id="clip0_614_12957">
<rect width="26" height="23" fill="white"/>
</clipPath>
</defs>
</svg>
