<svg width="40" height="36" viewBox="0 0 40 36" fill="none" xmlns="http://www.w3.org/2000/svg">
<path d="M39.268 14.7672L35.7328 11.2321C35.2641 10.7633 34.6281 10.5 33.9648 10.5H30V4.24927C30 2.17817 28.3211 0.499268 26.25 0.499268H13.75C11.6789 0.499268 10 2.17817 10 4.24927V10.4993H6.03516C5.37187 10.4993 4.73672 10.7625 4.26719 11.2313L0.732031 14.7672C0.263281 15.236 0 15.8719 0 16.5352V22.9993H10V21.7493C10 21.0586 10.5594 20.4993 11.25 20.4993H13.75C14.4406 20.4993 15 21.0586 15 21.7493V22.9993H25V21.7493C25 21.0586 25.5594 20.4993 26.25 20.4993H28.75C29.4406 20.4993 30 21.0586 30 21.7493V22.9993H40V16.5344C40 15.8719 39.7367 15.236 39.268 14.7672ZM25 10.4993H15V5.49927H25V10.4993ZM30 26.7493C30 27.4399 29.4406 27.9993 28.75 27.9993H26.25C25.5594 27.9993 25 27.4399 25 26.7493V25.4993H15V26.7493C15 27.4399 14.4406 27.9993 13.75 27.9993H11.25C10.5594 27.9993 10 27.4399 10 26.7493V25.4993H0V32.9993C0 34.3797 1.11953 35.4993 2.5 35.4993H37.5C38.8805 35.4993 40 34.3797 40 32.9993V25.4993H30V26.7493Z" fill="url(#paint0_linear_147_2918)"/>
<defs>
<linearGradient id="paint0_linear_147_2918" x1="20" y1="0.499268" x2="20" y2="35.4993" gradientUnits="userSpaceOnUse">
<stop stop-color="#54FFD4"/>
<stop offset="1" stop-color="#2C1CD8"/>
</linearGradient>
</defs>
</svg>
