<svg width="40" height="37" viewBox="0 0 40 37" fill="none" xmlns="http://www.w3.org/2000/svg">
<path d="M37.9304 1.17532C37.5414 0.307179 36.4302 0.272454 35.9649 1.09198C33.8119 4.83539 29.9574 7.16894 25.5542 7.16894H19.9981C12.6363 7.16894 6.6635 13.1417 6.6635 20.5035C6.6635 20.9897 6.71906 21.455 6.76768 21.9273C11.1987 18.7534 17.5951 16.0587 26.6654 16.0587C27.2766 16.0587 27.7766 16.5587 27.7766 17.1699C27.7766 17.7811 27.2766 18.2811 26.6654 18.2811C9.20541 18.2811 1.80193 28.9835 0.162883 33.0047C-0.295494 34.1368 0.246224 35.4286 1.37828 35.8939C2.51727 36.3662 3.80906 35.8175 4.28133 34.6924C4.38551 34.4424 5.73286 31.3657 9.27486 28.4001C11.5251 31.449 15.8033 34.359 21.4218 33.7617C32.3257 32.97 40 23.1913 40 11.2179C40 7.73149 39.2499 4.12004 37.9304 1.17532Z" fill="url(#paint0_linear_147_2907)"/>
<defs>
<linearGradient id="paint0_linear_147_2907" x1="20" y1="0.5" x2="20" y2="36.0637" gradientUnits="userSpaceOnUse">
<stop stop-color="#54FFD4"/>
<stop offset="1" stop-color="#2C1CD8"/>
</linearGradient>
</defs>
</svg>
