<svg width="40" height="41" viewBox="0 0 40 41" fill="none" xmlns="http://www.w3.org/2000/svg">
<path d="M27.4995 7.99985C27.4995 3.85775 24.1417 0.5 19.9996 0.5C15.8575 0.5 12.4998 3.85775 12.4998 7.99985C12.4998 12.142 15.8575 15.4997 19.9996 15.4997C24.1417 15.4997 27.4995 12.142 27.4995 7.99985ZM18.2489 19.3356C13.6138 16.4981 6.10613 15.7185 2.32808 15.5036C1.05857 15.4317 0 16.3989 0 17.62V35.0259C0 36.1454 0.905451 37.079 2.06949 37.1391C5.48036 37.318 12.381 37.9735 17.1504 40.3758C17.8825 40.7445 18.7504 40.2422 18.7504 39.4485V20.2309C18.7496 19.866 18.5692 19.5317 18.2489 19.3356ZM37.6711 15.5036C33.8939 15.7177 26.3854 16.4981 21.7511 19.3356C21.4308 19.5317 21.2504 19.8793 21.2504 20.2441V39.4461C21.2504 40.2422 22.1207 40.7453 22.855 40.3758C27.6237 37.9758 34.5204 37.3204 37.9305 37.1415C39.0945 37.0805 40 36.147 40 35.0274V17.62C39.9992 16.3989 38.9406 15.4317 37.6711 15.5036Z" fill="url(#paint0_linear_147_2913)"/>
<defs>
<linearGradient id="paint0_linear_147_2913" x1="20" y1="0.5" x2="20" y2="40.4993" gradientUnits="userSpaceOnUse">
<stop stop-color="#54FFD4"/>
<stop offset="1" stop-color="#2C1CD8"/>
</linearGradient>
</defs>
</svg>
