<svg width="40" height="37" viewBox="0 0 40 37" fill="none" xmlns="http://www.w3.org/2000/svg">
<path d="M36.0724 20.5447C33.1891 20.5447 31.9404 22.7387 30.3739 22.7387C26.209 22.7387 30 10.4995 30 10.4995C30 10.4995 16.3689 16.0551 16.3689 10.2706C16.3689 7.78257 18.8889 7.05875 18.8889 4.29937C18.8889 1.83396 16.9365 0.499512 14.6208 0.499512C12.2142 0.499512 10.012 1.81139 10.012 4.41243C10.012 7.28493 12.2142 8.52889 12.2142 10.0895C12.2142 14.9244 0 12.0799 0 12.0799V35.2214C0 35.2214 12.4052 38.0719 12.4052 33.231C12.4052 31.6703 9.62743 30.4458 9.62743 27.5733C9.62743 24.9721 11.6587 23.6603 14.0425 23.6603C16.3809 23.6603 18.3333 24.9948 18.3333 27.4601C18.3333 30.2195 15.8133 30.9433 15.8133 33.4313C15.8133 37.6537 24.8185 35.2181 28.3987 35.2181C28.3987 35.2181 25.9873 26.8778 30.1923 26.8778C32.6897 26.8778 33.4161 29.3883 36.1859 29.3883C38.6606 29.3884 40 27.4433 40 25.1136C40 22.7387 38.6832 20.5447 36.0724 20.5447Z" fill="url(#paint0_linear_147_2928)"/>
<defs>
<linearGradient id="paint0_linear_147_2928" x1="20" y1="0.499512" x2="20" y2="36.055" gradientUnits="userSpaceOnUse">
<stop stop-color="#54FFD4"/>
<stop offset="1" stop-color="#2C1CD8"/>
</linearGradient>
</defs>
</svg>
