<svg width="40" height="41" viewBox="0 0 40 41" fill="none" xmlns="http://www.w3.org/2000/svg">
<path d="M0.969717 12.0638L19.168 20.3192C19.6992 20.5606 20.3 20.5606 20.8312 20.3192L39.0295 12.0638C40.3225 11.4771 40.3225 9.5232 39.0295 8.93649L20.832 0.680318C20.571 0.561015 20.2874 0.499268 20.0004 0.499268C19.7134 0.499268 19.4298 0.561015 19.1688 0.680318L0.969717 8.93571C-0.323239 9.52242 -0.323239 11.4771 0.969717 12.0638ZM39.0303 18.9606L34.492 16.9036L21.864 22.6278C21.2734 22.8957 20.6461 23.0317 20 23.0317C19.3539 23.0317 18.7274 22.8957 18.136 22.6278L5.50874 16.9036L0.969717 18.9606C-0.323239 19.5465 -0.323239 21.4996 0.969717 22.0856L19.168 30.3347C19.6992 30.5753 20.3 30.5753 20.8312 30.3347L39.0303 22.0856C40.3232 21.4996 40.3232 19.5465 39.0303 18.9606ZM39.0303 28.9449L34.5092 26.8957L21.864 32.6277C21.2734 32.8956 20.6461 33.0316 20 33.0316C19.3539 33.0316 18.7274 32.8956 18.136 32.6277L5.49155 26.8957L0.969717 28.9449C-0.323239 29.5308 -0.323239 31.4839 0.969717 32.0699L19.168 40.319C19.6992 40.5596 20.3 40.5596 20.8312 40.319L39.0303 32.0699C40.3232 31.4839 40.3232 29.5308 39.0303 28.9449Z" fill="url(#paint0_linear_147_2923)"/>
<defs>
<linearGradient id="paint0_linear_147_2923" x1="20" y1="0.499268" x2="20" y2="40.4995" gradientUnits="userSpaceOnUse">
<stop stop-color="#54FFD4"/>
<stop offset="1" stop-color="#2C1CD8"/>
</linearGradient>
</defs>
</svg>
