<svg width="24" height="24" viewBox="0 0 24 24" fill="none" xmlns="http://www.w3.org/2000/svg">
<path d="M18.1581 6.96176V15.8006C18.1581 16.132 18.02 16.4359 17.799 16.6569C17.5504 16.9054 17.2466 17.0436 16.9151 17.0436C16.2246 17.0712 15.6445 16.4911 15.6721 15.8006L15.6445 9.97249L7.19239 18.4246C6.6952 18.9218 5.92181 18.9218 5.42462 18.4246C4.95506 17.9551 4.92744 17.154 5.42462 16.6569L13.8768 8.20472H8.07627C7.38574 8.23234 6.80569 7.65229 6.83331 6.96176C6.80569 6.27122 7.38574 5.69117 8.07627 5.7188H16.9151C17.6056 5.69117 18.1857 6.27122 18.1581 6.96176Z" fill="#2C2C2E"/>
</svg>
