<svg width="1180" height="568" viewBox="0 0 1180 568" fill="none" xmlns="http://www.w3.org/2000/svg">
<rect width="1180" height="568" rx="30" fill="#1A14A7"/>
<g opacity="0.8">
<g clip-path="url(#clip0_1428_2039)">
<path d="M1118.08 823.535H1117.67C1101.24 792.774 1085.14 761.288 1069.08 729.907C1016.1 626.332 963.699 523.894 902.332 452.586C760.834 288.171 571.567 289.326 217.368 823.535H216.922C571.43 288.754 760.876 287.627 902.538 452.227C963.935 523.573 1016.35 626.032 1069.34 729.631C1085.44 761.107 1101.6 792.691 1118.08 823.535ZM1132.03 823.535H1131.61C1110.65 787.562 1090.11 750.217 1069.59 712.929C1012.66 609.388 955.897 506.18 890.841 433.721C738.27 263.799 539.952 263.032 186.337 823.549H185.9C539.808 262.46 738.31 263.241 891.042 433.354C956.133 505.852 1012.9 609.078 1069.85 712.639C1090.42 750.039 1111.02 787.478 1132.03 823.535ZM1148.47 823.535H1148.02C1122.22 782.809 1096.88 739.757 1071.49 696.61C1010.26 592.546 948.697 487.921 879.341 414.105C715.213 239.421 507.346 237.376 156.738 823.535H156.306C507.193 236.786 715.241 238.88 879.537 413.731C948.921 487.579 1010.5 592.225 1071.74 696.31C1097.2 739.572 1122.59 782.726 1148.47 823.535ZM1167.4 823.535H1166.94C1136.06 778.615 1105.61 730.026 1074.94 681.115C1008.96 575.847 941.971 468.975 867.536 393.547C691.45 215.094 473.608 212.694 128.62 823.535H128.203C473.45 212.122 691.478 214.547 867.732 393.166C942.193 468.629 1009.2 575.516 1075.19 680.804C1105.92 729.841 1136.44 778.528 1167.4 823.535ZM1180 811.56V812.205C1146.76 766.756 1113.66 716.983 1080.14 666.576C1008.81 559.302 935.566 449.164 855.073 371.799C666.745 190.793 438.606 189.317 102.03 823.535H101.62C438.432 188.741 666.752 190.255 855.253 371.411C935.781 448.808 1009.03 558.963 1080.38 666.244C1113.82 716.543 1146.84 766.201 1180.01 811.56H1180ZM1180 781.424V782.059C1149.45 741.585 1118.65 697.744 1087.34 653.184C1009.91 542.973 929.324 428.291 841.525 348.631C640.795 166.515 402.255 167.576 77.0474 823.535H76.6486C402.071 167.004 640.799 165.957 841.699 348.24C929.527 427.925 1010.12 542.624 1087.57 652.842C1118.8 697.301 1149.52 741.02 1180.01 781.442L1180 781.424ZM1180 751.208V751.836C1152.77 716.816 1125.08 679.37 1096.84 641.188C1012.4 526.989 923.07 406.188 826.421 323.851C613.313 142.307 364.519 147.859 53.7401 823.535H53.3483C364.318 147.304 613.298 141.756 826.586 323.453C923.268 405.797 1012.61 526.633 1097.07 640.85C1125.22 678.927 1152.84 716.271 1180.01 751.208H1180ZM1180 720.922V721.54C1156.85 692.611 1133.19 662.088 1109.03 630.916C1016.54 511.588 916.667 382.706 809.247 297.323C583.947 118.243 325.419 130.542 32.1838 823.535H31.8039C325.22 129.98 583.928 117.699 809.405 296.915C916.856 382.322 1016.75 511.214 1109.25 630.571C1133.33 661.645 1156.92 692.078 1180.01 720.922H1180ZM1180 690.567V691.177C1161.87 669.143 1143.33 646.223 1124.41 622.825C1022.76 497.132 910.021 357.72 789.472 268.988C552.401 94.4852 285.1 116.062 12.5203 823.535H12.1474C284.878 115.514 552.373 93.9409 789.621 268.573C910.203 357.333 1022.96 496.762 1124.62 622.473C1143.47 645.777 1161.93 668.613 1180.01 690.567H1180ZM1180 660.149V660.752C1168.09 646.665 1155.97 632.264 1143.64 617.549C1031.75 484.299 903.158 331.161 766.562 238.89C520.09 72.3919 247.548 104.199 0.0123127 808.626V807.579C247.576 103.62 520.173 71.9313 766.701 238.468C903.331 330.766 1031.94 483.926 1143.85 617.194C1156.11 631.788 1168.16 646.106 1180.01 660.149H1180ZM1180 629.674V630.271L1167.68 616.067C1044.69 474.191 896.281 303.003 740.002 207.185C489.606 53.6623 218.938 93.7386 0.000515625 757.771V756.669C218.99 93.1733 489.701 53.2017 740.132 206.748C896.461 302.599 1044.88 473.807 1167.89 615.707L1180 629.674ZM1180 599.148V599.741C1048.43 451.801 882.102 268.946 709.332 174.146C457.35 35.8817 191.644 85.0575 0.0123127 703.201V702.064C191.715 84.5028 457.437 35.4315 709.45 173.71C882.18 268.489 1048.44 451.24 1180.01 599.148H1180ZM1180 568.569V569.159C1041.23 416.858 859.484 229.557 674.168 140.189C423.505 19.3046 166.296 77.7338 0.000515625 644.262V643.062C166.392 77.1511 423.602 18.8615 674.264 139.746C859.548 229.11 1041.24 416.289 1180.01 568.569H1180ZM1180 537.952V538.531C1019.36 366.314 795.748 152.046 578.781 85.8566C352.138 16.7158 132.762 109.255 0.0123127 580.118V578.879C132.866 108.669 352.223 16.2726 578.847 85.3995C795.79 151.582 1019.35 365.742 1180.01 537.952H1180ZM1180 507.289V507.865C1016.28 336.29 781.904 125.765 558.594 62.0536C332.949 -2.32108 118.628 83.2641 0.0123127 510.51V509.264C118.768 82.685 333.06 -2.76761 558.671 61.6071C781.937 125.298 1016.27 335.721 1180.01 507.289H1180ZM1180 476.585V477.16C1013.65 306.615 769.233 100.455 540.053 38.6937C450.702 14.6186 363.669 12.4868 284.491 42.9819C205.313 73.477 134.001 136.589 76.0633 242.994C47.1462 296.102 21.5638 359.992 0.0123127 435.992V434.757C21.5237 359.182 47.0164 295.596 75.8155 242.708C133.801 136.219 205.181 73.0513 284.418 42.5318C363.655 12.0123 450.727 14.1443 540.124 38.2368C769.261 99.9876 1013.63 306.053 1180.01 476.585H1180ZM1180 445.842V446.411C1002.6 268.381 730.928 54.7683 486.396 7.39622C402.52 -8.84923 321.836 -5.54158 249.25 25.4769C176.663 56.4954 112.188 115.211 60.6855 209.777C37.7298 251.936 17.3583 301.224 -0.00184668 358.355V357.179C17.304 300.428 37.5906 251.441 60.4283 209.487C111.966 114.841 176.507 56.0733 249.148 25.0304C321.789 -6.01254 402.508 -9.3202 486.43 6.93571C730.947 54.3043 1002.56 267.819 1180.01 445.842H1180ZM1180 415.061V415.629C1051.08 288.911 869.661 145.866 685.132 58.1074C547.254 -7.45362 407.653 -42.1601 286.948 -16.1032C166.244 9.95373 64.4734 96.7461 2.18115 274.159C1.44955 276.252 0.722676 278.355 0.000515625 280.467V279.42C0.629849 277.597 1.25918 275.779 1.88852 273.967C64.235 96.3973 166.114 9.52813 286.896 -16.5497C407.679 -42.6276 547.308 -7.91061 685.231 57.6818C869.703 145.399 1051.07 288.373 1180.01 415.061H1180ZM1180 384.255V384.817C1042.19 252.079 841.461 103.334 641.224 19.507C504.892 -37.5649 368.8 -64.543 252.983 -35.8727C146.174 -9.43549 56.6098 64.3389 -0.00892639 205.482V204.547C56.6783 63.725 146.205 -9.8959 252.931 -36.3297C368.807 -65.0139 504.941 -38.0324 641.316 19.0605C841.499 102.863 1042.19 251.538 1180.01 384.255H1180ZM1180 353.414V353.976C1033.05 215.175 811.354 61.0312 595.228 -17.635C461.14 -66.4446 329.204 -86.1966 218.612 -55.199C127.806 -29.7492 51.399 29.9361 0.000515625 135.839V135.022C51.4485 29.3533 127.818 -30.2272 218.551 -55.6596C329.192 -86.6711 461.178 -66.9121 595.31 -18.0885C811.38 60.5603 1033.02 214.637 1180.01 353.414H1180ZM1180 322.549V323.104C1023.79 178.368 779.744 19.3465 547.959 -52.9939C416.694 -93.9634 289.37 -107.135 184.184 -74.1625C109.427 -50.7189 45.8577 -3.9644 0.0123127 72.6711V71.9523C45.8978 -4.52618 109.434 -51.2144 184.128 -74.6161C289.362 -107.606 416.732 -94.4345 548.04 -53.451C779.756 18.8755 1023.75 177.82 1180.01 322.549H1180ZM249.299 823.535C602.216 315.47 783.131 312.089 914.243 470.601C972.434 540.945 1020.81 643.146 1070.08 747.231C1082.14 772.701 1094.25 798.277 1106.57 823.535H1106.17C1093.9 798.364 1081.82 772.872 1069.81 747.492C1020.55 643.432 972.186 541.256 914.033 470.957C783.065 312.633 602.343 316.039 249.757 823.535H249.299Z" fill="white" fill-opacity="0.7"/>
</g>
</g>
<defs>
<clipPath id="clip0_1428_2039">
<rect width="1180" height="568" rx="50" fill="white"/>
</clipPath>
</defs>
</svg>
