<svg width="1440" height="513" viewBox="0 0 1440 513" fill="none" xmlns="http://www.w3.org/2000/svg">
<rect width="1440" height="513" fill="#1A14A7"/>
<g clip-path="url(#clip0_1473_2039)">
<mask id="mask0_1473_2039" style="mask-type:luminance" maskUnits="userSpaceOnUse" x="0" y="0" width="1366" height="1294">
<path d="M0 0H1366V1293.39H0V0Z" fill="white"/>
</mask>
<g mask="url(#mask0_1473_2039)">
<g opacity="0.09">
<path d="M0.5 466.54C180.4 405.085 364.1 290.746 507.2 201.662C585.8 152.682 652.3 111.354 699.1 90.6141C880.4 10.2553 989.3 137.834 1109.8 278.883C1155.6 332.609 1203.1 388.248 1256.9 435.085C1290.9 464.703 1327.3 490.801 1367.5 510.622V511.464C1327.1 491.489 1290.4 465.239 1256.3 435.544C1202.4 388.63 1154.9 332.991 1109.1 279.266C988.8 138.447 880.1 11.0972 699.5 91.1498C652.7 111.89 586.3 153.217 507.7 202.121C364.5 291.358 180.6 405.773 0.5 467.229V466.54Z" fill="white"/>
<path d="M0.5 452.305C180.8 395.518 358.9 292.812 500.6 210.999C586.7 161.406 659.4 119.467 711.1 100.181C888.5 24.9495 995.9 146.176 1114.5 279.878C1156.3 327.022 1199.4 375.696 1247.5 417.865C1284.1 450.009 1323.6 478.326 1367.5 499.372V500.137C1323.3 479.015 1283.6 450.545 1246.8 418.248C1198.8 376.079 1155.6 327.404 1113.8 280.261C995.5 146.712 888.2 25.7913 711.5 100.716C659.8 120.002 587.2 161.942 501.1 211.535C359.2 293.424 181 396.207 0.5 452.994V452.305Z" fill="white"/>
<path d="M0.5 437.764C181.4 385.186 354.6 293.042 494.8 218.423C587.9 168.906 666.5 127.12 723.1 109.747C896.6 39.6436 1002.5 154.442 1119.1 280.873C1156.3 321.205 1194.6 362.762 1236.5 399.804C1276.2 434.932 1319.2 466.004 1367.5 488.275V489.04C1318.9 466.693 1275.8 435.468 1235.9 400.263C1194 363.145 1155.7 321.588 1118.5 281.256C1002 155.054 896.3 40.409 723.5 110.283L723.4 110.359C666.9 127.656 588.3 169.442 495.2 218.958C354.9 293.577 181.6 385.799 0.5 438.453V437.764Z" fill="white"/>
<path d="M0.5 422.993C181.9 374.089 350.5 291.817 488.8 224.392C589.1 175.488 673.4 134.314 735.1 119.314C904.6 54.2613 1009 162.784 1123.6 281.944C1155.6 315.159 1188.3 349.216 1223.5 380.594C1266.8 419.167 1313.8 453.606 1367.5 477.407V478.173C1313.5 454.295 1266.4 419.702 1222.9 380.977C1187.7 349.599 1154.9 315.542 1123 282.327C1008.5 163.396 904.4 55.0266 735.5 119.926H735.4C673.8 134.926 589.5 176.024 489.3 224.928C350.9 292.429 182.1 374.701 0.5 423.682V422.993Z" fill="white"/>
<path d="M0.5 407.916C182 362.456 346.1 289.521 482.2 229.137C589.9 181.228 680 141.202 747.2 128.88C912.6 68.8789 1015.4 171.126 1128 283.092C1198.2 352.813 1272.2 426.361 1367.5 466.77V467.535C1271.9 427.126 1197.7 353.425 1127.3 283.475C1014.9 171.662 912.3 69.6443 747.5 129.492H747.4C680.4 141.814 590.3 181.84 482.6 229.673C346.5 290.133 182.2 363.145 0.5 408.605V407.916Z" fill="white"/>
<path d="M0.5 392.686C181.2 350.441 340.7 286.46 474 232.964C590 186.356 686.2 147.707 759.2 138.447C920.5 83.4966 1021.7 179.468 1132.2 284.24C1201.3 349.752 1274.1 418.707 1367.5 456.361V457.126C1273.8 419.473 1200.8 350.364 1131.5 284.623C1021.2 180.004 920.2 84.2619 759.5 139.059H759.4C686.5 148.319 590.4 186.891 474.4 233.5C341 287.072 181.4 351.129 0.5 393.375V392.686Z" fill="white"/>
<path d="M0.5 377.303C179.1 338.196 333.5 282.71 463.3 235.949C589 190.795 691.7 153.83 771.2 148.013C928.3 98.0377 1027.9 187.81 1136.2 285.465C1204.3 346.844 1275.9 411.36 1367.5 446.182V446.948C1275.6 412.049 1203.8 347.379 1135.6 285.848C1027.4 188.346 928.1 98.803 771.5 148.625H771.4H771.3C691.9 154.442 589.3 191.33 463.7 236.561C333.7 283.322 179.2 338.884 0.5 377.916V377.303Z" fill="white"/>
<path d="M0.5 361.691C174.8 325.874 323.2 278.5 448.8 238.474C586.1 194.621 696.2 159.493 783.2 157.58C936.1 112.579 1033.9 196.152 1140 286.689C1207.1 344.088 1277.6 404.243 1367.5 436.31V437.075C1277.4 405.008 1206.7 344.624 1139.3 287.149C1033.5 196.688 935.8 113.344 783.5 158.192H783.4H783.3C696.4 160.105 586.4 195.233 449.1 239.01C323.4 279.113 174.9 326.486 0.5 362.38V361.691Z" fill="white"/>
<path d="M0.5 346.002C167.4 313.629 308.2 274.138 428.1 240.54C580.5 197.836 699.3 164.544 795.3 167.146C943.7 127.12 1039.8 204.494 1143.5 288.067C1209.8 341.486 1279.2 397.431 1367.5 426.743V427.432C1279 398.197 1209.3 342.099 1142.9 288.526C1039.3 205.106 943.5 127.809 795.5 167.758L795.4 167.835H795.3C699.5 165.156 580.7 198.448 428.4 241.153C308.4 274.75 167.5 314.241 0.5 346.614V346.002Z" fill="white"/>
<path d="M0.5 330.16C155.2 301.766 285.8 269.929 398 242.53C570.9 200.361 700.3 168.83 807.3 176.713C951.2 141.508 1045.4 212.836 1146.6 289.445C1212.2 339.114 1280.7 390.926 1367.5 417.406V418.095C1280.4 391.615 1211.8 339.65 1146.1 289.904C1045 213.448 951 142.273 807.4 177.325V177.402H807.3C700.4 169.442 571.1 200.973 398.3 243.143C286 270.541 155.3 302.378 0.5 330.772V330.16Z" fill="white"/>
<path d="M0.5 314.241C135.8 290.593 251.5 266.179 352.3 244.903C555.3 202.045 698.2 171.968 819.3 186.279C958.6 155.896 1050.9 221.254 1149.4 290.975C1214.3 336.894 1281.9 384.727 1367.5 408.375V409.064C1281.7 385.416 1213.9 337.43 1148.9 291.434C1050.5 221.79 958.3 156.585 819.4 186.968H819.3C698.3 172.58 555.5 202.734 352.5 245.515C251.6 266.791 135.9 291.205 0.5 314.853V314.241Z" fill="white"/>
<path d="M0.5 298.169C104.9 280.796 197.1 263.883 279.6 248.729C530.6 202.734 691.2 173.269 831.3 195.922C965.7 170.284 1056 229.596 1151.8 292.582C1216.1 334.905 1283 378.834 1367.5 399.727V400.416C1282.8 379.523 1215.7 335.517 1151.2 293.042C1055.6 230.209 965.5 170.896 831.4 196.535H831.3H831.2C691.3 173.958 530.7 203.346 279.7 249.342C197.3 264.495 105 281.409 0.5 298.858V298.169Z" fill="white"/>
<path d="M0.5 282.097C56 273.22 108 264.725 156.7 256.765C492 201.892 676.6 171.738 843.3 205.489C972.7 184.519 1060.7 237.938 1153.5 294.266C1217.5 333.144 1283.8 373.4 1367.5 391.385V392.074C1283.6 374.089 1217.2 333.757 1153 294.802C1060.3 238.551 972.4 185.131 843.4 206.101H843.3H843.2C676.6 172.427 492.1 202.581 156.9 257.378C108.1 265.337 56.1 273.832 0.5 282.786V282.097Z" fill="white"/>
<path d="M0.5 265.949C453.3 196.152 659.5 167.758 855.4 215.055C979.3 198.601 1065 246.28 1154.5 296.103C1218.4 331.69 1284.3 368.273 1367.5 383.426V384.115C1284.1 368.961 1218.1 332.303 1154 296.639C1064.6 246.893 979 199.29 855.4 215.668H855.3H855.2C659.5 168.447 453.4 196.764 0.5 266.561V265.949Z" fill="white"/>
<path d="M0.5 249.724C215.6 217.657 373.6 197.989 501 191.483C651.1 183.754 758.9 194.392 867.4 224.622C985.5 212.606 1068.7 254.622 1154.6 298.093C1218.7 330.466 1284.5 363.681 1367.5 375.849V376.462C1284.3 364.369 1218.4 331.078 1154.2 298.628C1068.3 255.235 985.3 213.295 867.4 225.234H867.3H867.2C758.8 195.004 651.1 184.366 501.1 192.096C373.6 198.601 215.6 218.346 0.5 250.337V249.724Z" fill="white"/>
<path d="M0.5 233.423C223.7 201.203 384.2 185.131 512.5 183.448C662.6 181.534 768.7 199.366 879.4 234.188C991.3 226.459 1071.5 262.964 1153.5 300.236C1218.2 329.7 1284.1 359.548 1367.5 368.655V369.344C1283.9 360.237 1217.9 330.236 1153.1 300.771C1071.2 263.5 991 227.071 879.4 234.801L879.3 234.877L879.2 234.801C768.5 199.978 662.5 182.146 512.6 184.06C384.2 185.743 223.7 201.815 0.5 234.112V233.423Z" fill="white"/>
<path d="M0.5 217.122C231.9 184.596 394.9 172.197 524.1 175.412C674.1 179.238 778.5 204.264 891.4 243.755C996.4 240.081 1073.2 271.153 1150.8 302.532C1216.6 329.241 1283 356.104 1367.5 361.92V362.609C1282.8 356.716 1216.4 329.854 1150.4 303.144C1072.9 271.766 996.1 240.694 891.4 244.444H891.3L891.2 244.367C778.3 204.953 673.9 179.927 524 176.1C394.9 172.81 231.9 185.284 0.5 217.81V217.122Z" fill="white"/>
<path d="M0.5 200.82C240.2 167.912 405.6 159.11 535.6 167.452C685.5 177.019 788.2 209.239 903.5 253.321C1000.6 253.321 1073.5 279.342 1145.9 305.134C1213.6 329.241 1281 353.196 1367.5 355.568V356.257C1280.9 353.885 1213.4 329.854 1145.5 305.669C1073.2 279.878 1000.3 253.934 903.4 254.01H903.3L903.2 253.934C788 209.851 685.3 177.631 535.5 168.065C405.6 159.799 240.2 168.524 0.5 201.433V200.82Z" fill="white"/>
<path d="M0.5 184.442C248.6 151.074 416.4 146.1 547.1 159.416C697 174.799 798 214.213 915.5 262.964C1003.5 266.179 1071.5 287.302 1137.9 307.889C1208.7 329.854 1277.8 351.283 1367.5 349.752V350.441C1277.7 351.895 1208.5 330.466 1137.6 308.425C1071.2 287.837 1003.3 266.791 915.3 263.577H915.2V263.5C797.8 214.826 696.7 175.412 547 160.105C416.4 146.712 248.6 151.763 0.5 185.055V184.442Z" fill="white"/>
<path d="M0.5 167.988C535.4 97.5019 694.7 168.6 910.4 264.878L927.5 272.531C1004.6 278.347 1066.3 294.955 1125.4 310.797C1201.1 331.155 1272.7 350.441 1367.5 344.471V345.16C1272.6 351.053 1200.9 331.843 1125.1 311.409C1066 295.491 1004.4 278.96 927.3 273.143H927.2V273.067C920.7 270.235 915.3 267.786 910 265.413C694.5 169.213 535.3 98.1142 0.5 168.677V167.988Z" fill="white"/>
<path d="M0.5 151.61C527.6 83.1904 688.6 160.947 893.8 260.133C908.7 267.327 923.9 274.674 939.5 282.097C1003.1 289.521 1056.1 301.996 1106.1 313.705C1189.8 333.374 1265 351.129 1367.5 339.65V340.338C1265 351.742 1189.6 334.063 1105.9 314.318C1055.9 302.532 1002.9 290.057 939.3 282.71H939.2L939.1 282.633C923.6 275.286 908.3 267.939 893.3 260.668C688.2 161.559 527.4 83.8792 0.5 152.222V151.61Z" fill="white"/>
<path d="M0.5 135.156C524.1 68.1136 685.7 152.835 883.2 256.383C905.4 267.939 928 279.801 951.5 291.664C997.8 299.011 1038.4 307.736 1076.4 315.925C1173.3 336.741 1253.5 353.961 1367.5 335.44V336.129C1253.4 354.65 1173.2 337.43 1076.2 316.537C1038.2 308.348 997.5 299.623 951.3 292.276H951.2H951.1C927.5 280.337 904.9 268.475 882.8 256.918C685.3 153.37 523.9 68.8024 0.5 135.768V135.156Z" fill="white"/>
<path d="M0.5 118.625C523.7 52.501 685.3 144.34 877 253.168C904.8 269.01 933.3 285.159 963.5 301.231C987.2 306.052 1009.4 310.874 1030.5 315.465C1150.6 341.486 1236.7 360.084 1367.5 331.767V332.456C1236.6 360.696 1150.5 342.099 1030.3 316.078C1009.1 311.486 986.9 306.664 963.3 301.843H963.2H963.1C932.8 285.694 904.3 269.546 876.5 253.704C684.9 144.875 523.5 53.1898 0.5 119.314V118.625Z" fill="white"/>
<path d="M0.5 102.17C525.5 36.4293 686.8 135.538 873.9 250.413C906.4 270.388 939.6 290.746 975.6 310.874C1112.5 345.16 1199.6 365.135 1323.9 339.267C1337.9 336.359 1352.4 332.915 1367.5 328.782V329.471C1352.5 333.527 1338.1 337.048 1324.2 339.879C1199.6 365.747 1112.4 345.849 975.3 311.409H975.2H975.1C939.1 291.281 905.8 270.847 873.4 250.949C686.5 136.074 525.3 37.1181 0.5 102.783V102.17Z" fill="white"/>
<path d="M0.5 85.716C529.1 20.0514 689.9 126.508 873.2 247.888C909.4 271.919 946.6 296.486 987.6 320.44C1120.9 360.466 1206.8 372.176 1329.7 337.966C1341.9 334.599 1354.5 330.695 1367.5 326.41V327.098C1354.6 331.384 1342.1 335.211 1330 338.578C1206.8 372.865 1120.8 361.155 987.2 320.976H987.1C946.1 297.021 908.9 272.378 872.6 248.347C689.5 127.12 528.8 20.7402 0.5 86.3283V85.716Z" fill="white"/>
<path d="M0.5 69.1851C533.9 3.36742 694.1 117.324 874.3 245.515C913.7 273.602 954.1 302.302 999.6 330.007C1140.3 379.676 1228.2 379.446 1367.5 324.726V325.415C1228.1 380.135 1140.1 380.288 999.2 330.542H999.1C953.6 302.838 913.2 274.062 873.7 245.974C693.7 117.936 533.6 4.0562 0.5 69.7973V69.1851Z" fill="white"/>
<path d="M0.5 52.6541C539.8 -13.4697 699.3 107.987 876.7 243.219C918.9 275.363 962.1 308.271 1011.6 339.573C1146.6 394.753 1232.9 385.339 1367.5 323.731V324.496C1232.9 386.028 1146.4 395.365 1011.2 340.109H1011.1C961.6 308.731 918.3 275.822 876.1 243.678C698.9 108.599 539.5 -12.8574 0.5 53.2664V52.6541Z" fill="white"/>
<path d="M0.5 36.1232C546.6 -30.5363 705.3 98.5734 880.3 241C924.8 277.199 970.4 314.241 1023.6 349.14C1152.9 409.6 1237.6 391.691 1367.5 323.578V324.343C1237.6 392.38 1152.7 410.212 1023.2 349.675H1023.1C969.8 314.7 924.3 277.659 879.7 241.382C704.9 99.1091 546.2 -29.9241 0.5 36.7354V36.1232Z" fill="white"/>
<path d="M0.5 19.5922C554 -47.8326 711.9 88.9303 884.9 238.78C931.4 279.036 979 320.287 1035.7 358.783C1159.3 424.218 1242.3 398.579 1367.5 324.114V324.955C1242.3 399.345 1159.1 424.906 1035.2 359.242H1035.1C978.4 320.746 930.8 279.495 884.2 239.163C711.5 89.4661 553.6 -47.1438 0.5 20.2045V19.5922Z" fill="white"/>
<path d="M0.5 3.06128C561.9 -65.2054 719.1 79.2873 890.1 236.561C938.4 281.026 987.8 326.41 1047.7 368.349C1165.7 438.682 1247 405.926 1367.5 325.568V326.41C1246.9 406.768 1165.5 439.371 1047.1 368.808C987.2 326.869 937.8 281.409 889.5 237.02C718.6 79.823 561.6 -64.5166 0.5 3.67354V3.06128Z" fill="white"/>
<path d="M0.5 -13.5462C570.4 -82.6547 726.7 69.4912 896 234.418C945.8 282.939 996.8 332.532 1059.7 377.916C1172.1 452.841 1251.6 413.886 1367.5 327.864V328.782C1251.5 414.728 1171.9 453.606 1059.1 378.375C996.2 332.991 945.2 283.322 895.4 234.801C726.2 70.0269 570 -82.0424 0.5 -12.8574V-13.5462Z" fill="white"/>
<path d="M0.5 -30.0771C579.2 -100.257 734.7 59.6185 902.5 232.275C953.6 284.929 1005.9 338.731 1071.7 387.482C1171.3 461.412 1245.3 427.968 1344.9 349.293C1352.3 343.476 1359.83 337.405 1367.5 331.078V331.996C1360.03 338.119 1352.7 344.037 1345.5 349.752C1245.5 428.657 1171.2 462.254 1071.1 387.941C1005.3 339.114 953 285.312 901.8 232.658C734.2 60.1543 578.8 -99.6448 0.5 -29.4649V-30.0771Z" fill="white"/>
</g>
</g>
</g>
<defs>
<clipPath id="clip0_1473_2039">
<rect width="1440" height="512" fill="white"/>
</clipPath>
</defs>
</svg>
