<svg width="1180" height="347" viewBox="0 0 1180 347" fill="none" xmlns="http://www.w3.org/2000/svg">
<rect width="1180" height="347" rx="30" fill="#FDE047"/>
<g opacity="0.8">
<g clip-path="url(#clip0_1613_2039)">
<path d="M1118.08 503.11H1117.67C1101.24 484.318 1085.14 465.083 1069.08 445.911C1016.1 382.636 963.7 320.055 902.332 276.492C760.834 176.048 571.567 176.754 217.368 503.11H216.922C571.43 176.404 760.876 175.716 902.538 276.272C963.936 319.859 1016.35 382.452 1069.34 445.743C1085.44 464.972 1101.6 484.267 1118.08 503.11ZM1132.03 503.11H1131.61C1110.65 481.134 1090.11 458.319 1069.59 435.539C1012.66 372.285 955.897 309.233 890.842 264.967C738.27 161.159 539.952 160.69 186.337 503.119H185.9C539.808 160.341 738.31 160.818 891.042 264.743C956.133 309.033 1012.9 372.095 1069.85 435.362C1090.42 458.211 1111.02 481.082 1132.03 503.11ZM1148.47 503.11H1148.02C1122.22 478.23 1096.88 451.929 1071.49 425.57C1010.26 361.996 948.697 298.078 879.341 252.983C715.213 146.266 507.346 145.017 156.738 503.11H156.306C507.193 144.656 715.241 145.935 879.537 252.755C948.921 297.87 1010.5 361.8 1071.74 425.387C1097.2 451.816 1122.59 478.179 1148.47 503.11ZM1167.4 503.11H1166.94C1136.06 475.668 1105.61 445.984 1074.94 416.104C1008.96 351.794 941.971 286.504 867.537 240.424C691.45 131.404 473.608 129.938 128.621 503.11H128.203C473.45 129.588 691.478 131.07 867.732 240.191C942.193 286.293 1009.2 351.592 1075.19 415.914C1105.92 445.871 1136.44 475.615 1167.4 503.11ZM1180 495.794V496.189C1146.76 468.423 1113.66 438.016 1080.14 407.221C1008.81 341.686 935.566 274.401 855.073 227.138C666.745 116.558 438.607 115.656 102.031 503.11H101.62C438.432 115.305 666.753 116.23 855.253 226.901C935.781 274.184 1009.03 341.479 1080.38 407.019C1113.82 437.747 1146.84 468.084 1180.01 495.794H1180ZM1180 477.384V477.772C1149.45 453.046 1118.65 426.263 1087.34 399.04C1009.91 331.71 929.324 261.65 841.525 212.984C640.795 101.727 402.256 102.375 77.0476 503.11H76.6487C402.071 102.025 640.8 101.386 841.699 212.745C929.527 261.426 1010.12 331.497 1087.57 398.831C1118.8 425.992 1149.52 452.701 1180.01 477.395L1180 477.384ZM1180 458.925V459.308C1152.77 437.914 1125.08 415.038 1096.84 391.712C1012.4 321.946 923.07 248.146 826.421 197.846C613.313 86.9377 364.519 90.3291 53.7402 503.11H53.3484C364.319 89.9902 613.299 86.601 826.586 197.603C923.268 247.908 1012.61 321.728 1097.07 391.505C1125.22 414.767 1152.84 437.581 1180.01 458.925H1180ZM1180 440.423V440.8C1156.85 423.127 1133.19 404.48 1109.03 385.437C1016.54 312.537 916.667 233.801 809.247 181.639C583.947 72.2363 325.419 79.7502 32.184 503.11H31.804C325.22 79.407 583.928 71.9038 809.405 181.39C916.856 233.566 1016.75 312.309 1109.25 385.226C1133.33 404.209 1156.92 422.801 1180.01 440.423H1180ZM1180 421.878V422.251C1161.87 408.79 1143.33 394.788 1124.41 380.493C1022.76 303.706 910.021 218.537 789.473 164.329C552.401 57.7225 285.1 70.9041 12.5204 503.11H12.1476C284.879 70.5695 552.373 57.39 789.621 164.075C910.203 218.3 1022.96 303.48 1124.62 380.278C1143.47 394.515 1161.93 408.466 1180.01 421.878H1180ZM1180 403.295V403.664C1168.09 395.058 1155.97 386.26 1143.64 377.271C1031.75 295.866 903.159 202.311 766.562 145.942C520.09 44.2253 247.548 63.6568 0.0124501 494.002V493.362C247.576 63.303 520.173 43.944 766.701 145.684C903.331 202.07 1031.94 295.638 1143.85 377.053C1156.11 385.969 1168.16 394.716 1180.01 403.295H1180ZM1180 384.678V385.042L1167.68 376.365C1044.69 289.691 896.281 185.109 740.002 126.572C489.606 32.7831 218.938 57.2663 0.000652954 462.934V462.261C218.99 56.921 489.701 32.5017 740.132 126.306C896.461 184.862 1044.88 289.456 1167.89 376.145L1180 384.678ZM1180 366.029V366.391C1048.43 276.012 882.103 164.303 709.332 106.388C457.35 21.9206 191.644 51.9629 0.0124501 429.596V428.902C191.715 51.6241 457.437 21.6457 709.45 106.122C882.18 164.024 1048.44 275.669 1180.01 366.029H1180ZM1180 347.348V347.708C1041.23 254.665 859.484 140.24 674.168 85.6439C423.505 11.7935 166.296 47.4888 0.000652954 393.59V392.857C166.392 47.1328 423.602 11.5228 674.264 85.3732C859.548 139.967 1041.24 254.317 1180.01 347.348H1180ZM1180 328.643V328.997C1019.36 223.787 795.748 92.887 578.781 52.4511C352.139 10.2119 132.762 66.7454 0.0124501 354.403V353.646C132.866 66.3873 352.224 9.94118 578.847 52.1719C795.79 92.6035 1019.35 223.437 1180.01 328.643H1180ZM1180 309.911V310.263C1016.29 205.445 781.904 76.832 558.594 37.9095C332.949 -1.41799 118.628 50.8673 0.0124501 311.878V311.117C118.768 50.5135 333.06 -1.69078 558.672 37.6367C781.937 76.5464 1016.27 205.097 1180.01 309.911H1180ZM1180 291.153V291.505C1013.65 187.316 769.233 61.3695 540.054 23.6386C450.702 8.93075 363.67 7.62836 284.492 26.2583C205.314 44.8882 134.001 83.4442 76.0634 148.449C47.1464 180.893 21.564 219.924 0.0124501 266.354V265.6C21.5238 219.43 47.0166 180.584 75.8157 148.274C133.801 83.2182 205.181 44.6282 284.418 25.9833C363.655 7.33846 450.728 8.64095 540.124 23.3594C769.261 61.084 1013.63 186.972 1180.01 291.153H1180ZM1180 272.372V272.719C1002.6 163.958 730.928 33.4588 486.397 4.51846C402.52 -5.40614 321.836 -3.38545 249.25 15.5642C176.663 34.5139 112.188 70.384 60.6857 128.156C37.73 153.912 17.3584 184.022 -0.00170935 218.925V218.206C17.3042 183.536 37.5907 153.609 60.4284 127.979C111.966 70.158 176.507 34.256 249.148 15.2914C321.789 -3.67316 402.508 -5.69386 486.43 4.23713C730.947 33.1753 1002.56 163.615 1180.01 272.372H1180ZM1180 253.567V253.914C1051.08 176.5 869.661 89.112 685.132 35.4987C547.254 -4.55354 407.653 -25.7563 286.948 -9.8377C166.244 6.08088 64.4735 59.1037 2.18129 167.488C1.44969 168.767 0.722813 170.051 0.000652954 171.342V170.702C0.629986 169.588 1.25932 168.478 1.88865 167.371C64.2351 58.8906 166.114 5.82087 286.896 -10.1105C407.679 -26.0419 547.308 -4.83272 685.231 35.2387C869.703 88.8264 1051.07 176.172 1180.01 253.567H1180ZM1180 234.747V235.09C1042.19 153.999 841.461 63.1281 641.224 11.9171C504.892 -22.949 368.8 -39.4303 252.983 -21.9152C146.174 -5.7643 56.61 39.3056 -0.00878906 125.532V124.961C56.6784 38.9306 146.205 -6.04557 252.931 -22.1944C368.807 -39.718 504.941 -23.2346 641.316 11.6443C841.499 62.8404 1042.19 153.669 1180.01 234.747H1180ZM1180 215.906V216.25C1033.05 131.454 811.354 37.2849 595.228 -10.7735C461.14 -40.592 329.204 -52.6588 218.612 -33.722C127.806 -18.1743 51.3991 18.2884 0.000652954 82.9859V82.487C51.4487 17.9324 127.818 -18.4663 218.551 -34.0033C329.192 -52.9487 461.178 -40.8776 595.311 -11.0505C811.38 36.9972 1033.02 131.125 1180.01 215.906H1180ZM1180 197.05V197.389C1023.79 108.968 779.745 11.8191 547.96 -32.3748C416.694 -57.4037 289.37 -65.4504 184.184 -45.307C109.427 -30.985 45.8578 -2.42192 0.0124501 44.3959V43.9568C45.8979 -2.76512 109.434 -31.2877 184.128 -45.5841C289.363 -65.7381 416.732 -57.6915 548.04 -32.654C779.756 11.5313 1023.75 108.633 1180.01 197.05H1180ZM249.299 503.11C602.216 192.726 783.131 190.66 914.243 287.497C972.434 330.472 1020.81 392.908 1070.08 456.495C1082.14 472.055 1094.25 487.68 1106.57 503.11H1106.17C1093.9 487.733 1081.82 472.16 1069.81 456.655C1020.55 393.083 972.186 330.662 914.033 287.715C783.065 190.993 602.343 193.073 249.757 503.11H249.299Z" fill="white" fill-opacity="0.7"/>
</g>
</g>
<defs>
<clipPath id="clip0_1613_2039">
<rect width="1180" height="347" rx="50" fill="white"/>
</clipPath>
</defs>
</svg>
