<svg width="100" height="100" viewBox="0 0 100 100" fill="none" xmlns="http://www.w3.org/2000/svg">
<circle cx="50" cy="50" r="50" fill="#2C2C2E"/>
<path d="M66.6667 56.25V40.625L53.6459 33.301M46.3542 33.301L33.3334 40.625V56.25M36.4584 61.1333L50 68.75L58.3334 64.0625L63.5417 61.1333M50 42.7083L53.125 44.5312L56.25 46.3542V53.6458L53.125 55.4687L50 57.2916L46.875 55.4687L43.75 53.6458V46.3542L46.875 44.5312L50 42.7083ZM50 42.7083V35.4167M56.25 53.125L63.5417 57.2916M43.75 53.125L36.4584 57.2916" stroke="white" stroke-width="2" stroke-linecap="round" stroke-linejoin="round"/>
<path d="M50 35.4166C51.7259 35.4166 53.125 34.0175 53.125 32.2916C53.125 30.5657 51.7259 29.1666 50 29.1666C48.2741 29.1666 46.875 30.5657 46.875 32.2916C46.875 34.0175 48.2741 35.4166 50 35.4166Z" stroke="white" stroke-width="2" stroke-linecap="round" stroke-linejoin="round"/>
<path d="M33.3334 62.5C35.0593 62.5 36.4584 61.1009 36.4584 59.375C36.4584 57.6491 35.0593 56.25 33.3334 56.25C31.6075 56.25 30.2084 57.6491 30.2084 59.375C30.2084 61.1009 31.6075 62.5 33.3334 62.5Z" stroke="white" stroke-width="2" stroke-linecap="round" stroke-linejoin="round"/>
<path d="M66.6667 62.5C68.3926 62.5 69.7917 61.1009 69.7917 59.375C69.7917 57.6491 68.3926 56.25 66.6667 56.25C64.9409 56.25 63.5417 57.6491 63.5417 59.375C63.5417 61.1009 64.9409 62.5 66.6667 62.5Z" stroke="white" stroke-width="2" stroke-linecap="round" stroke-linejoin="round"/>
</svg>
