<svg width="76" height="57" viewBox="0 0 76 57" fill="none" xmlns="http://www.w3.org/2000/svg">
<g clip-path="url(#clip0_614_12118)">
<mask id="mask0_614_12118" style="mask-type:luminance" maskUnits="userSpaceOnUse" x="-785" y="-1981" width="1366" height="4646">
<path d="M-785 -1981H581V2665H-785V-1981Z" fill="white"/>
</mask>
<g mask="url(#mask0_614_12118)">
<path fill-rule="evenodd" clip-rule="evenodd" d="M75.3999 37.3C75.3999 37.6 75.2999 37.8 75.0999 38L56.9999 56.1C56.7999 56.3 56.4999 56.4 56.1999 56.4C55.8999 56.4 55.5999 56.3 55.3999 56.1L50.0999 50.8C49.4332 52.0667 48.6332 53.2333 47.6999 54.3C45.3999 56.6 41.5999 56.6 39.1999 54.3C38.0999 53.1 37.3999 51.6 37.3999 50C37.3999 48.4 38.0999 46.9 39.1999 45.7C40.2666 44.7667 41.4332 44 42.6999 43.4L38.1999 38.8L20.8999 56.1C20.6999 56.3 20.3999 56.4 20.0999 56.4C19.7999 56.4 19.4999 56.3 19.2999 56.1L13.9999 50.8C13.3332 52.0667 12.5332 53.2333 11.5999 54.3C10.4999 55.4 8.8999 56 7.2999 56C5.6999 56 4.1999 55.4 3.0999 54.3C1.8999 53.1 1.2999 51.6 1.2999 50C1.2999 48.4 1.8999 46.9 3.0999 45.7C4.16657 44.7667 5.33324 44 6.5999 43.4L1.1999 38C0.999902 37.8 0.899902 37.6 0.899902 37.3C0.899902 37 0.999902 36.7 1.1999 36.5L7.5999 30.1C7.8999 29.8 8.2999 29.7 8.5999 29.7C8.9999 29.8 9.2999 30 9.4999 30.4C10.1666 31.9333 11.0332 33.3333 12.0999 34.6C13.5999 36.1 15.9999 36.1 17.4999 34.6C18.8999 33.1 18.8999 30.8 17.4999 29.3C16.1666 28.2333 14.7332 27.3333 13.1999 26.6C12.8999 26.4 12.6999 26.1 12.5999 25.8C12.4999 25.4 12.5999 25 12.8999 24.8L19.2999 18.4L24.5999 13.1C23.3332 12.4333 22.1999 11.6333 21.1999 10.7C19.9999 9.6 19.3999 8 19.3999 6.4C19.3999 4.8 19.9999 3.3 21.1999 2.2C22.2999 1 23.7999 0.4 25.3999 0.4C26.9999 0.4 28.5999 1 29.6999 2.2C30.6332 3.2 31.4332 4.33333 32.0999 5.6L37.3999 0.3C37.7999 -0.1 38.4999 -0.1 38.9999 0.3L56.9999 18.4L62.2999 23.7C62.9666 22.4333 63.7666 21.2667 64.6999 20.2C66.1999 18.6 68.4999 18 70.5999 18.5C72.7999 19.1 74.3999 20.7 74.9999 22.9C75.4999 25 74.8999 27.2 73.2999 28.7C72.2332 29.7 71.0666 30.5333 69.7999 31.2L75.0999 36.5C75.2999 36.7 75.3999 37 75.3999 37.3ZM21.6999 19.2L26.1999 23.7C26.8666 22.4333 27.6666 21.2667 28.5999 20.2C30.0999 18.7 32.3999 18 34.4999 18.6C36.5999 19.1 38.2999 20.8 38.7999 22.9C39.3999 25 38.6999 27.2 37.0999 28.7C36.0332 29.7 34.8999 30.5333 33.6999 31.2L38.1999 35.7L43.2999 30.6L43.7999 30.1C43.9999 29.8 44.2999 29.7 44.5999 29.7H44.7999C45.0999 29.8 45.3999 30 45.5999 30.4C46.2666 31.9333 47.1666 33.3333 48.2999 34.6C49.7999 36 52.0999 36 53.5999 34.6C54.2999 33.9 54.6999 32.9 54.6999 31.9C54.6999 30.9 54.2999 30 53.5999 29.3C52.2666 28.2333 50.8332 27.3333 49.2999 26.6C48.9999 26.4 48.7999 26.1 48.6999 25.8C48.6999 25.4 48.7999 25 48.9999 24.8L49.2999 24.5L54.5999 19.2L38.1999 2.7L32.5999 8.3C32.2999 8.6 31.9999 8.7 31.5999 8.6C31.1999 8.6 30.8999 8.3 30.7999 8C30.0666 6.46667 29.1666 5.03333 28.0999 3.7C26.5999 2.3 24.1999 2.3 22.6999 3.7C21.9999 4.5 21.5999 5.4 21.5999 6.4C21.5999 7.4 21.9999 8.4 22.7999 9.1C24.0666 10.1667 25.4666 11.0667 26.9999 11.8C27.2999 11.9 27.5999 12.2 27.5999 12.6C27.6999 13 27.5999 13.3 27.2999 13.6L21.6999 19.2ZM36.5999 37.3L30.9999 31.6C30.6999 31.4 30.5999 31 30.6999 30.7C30.6999 30.3 30.9999 30 31.2999 29.8C32.8332 29.1333 34.2332 28.2333 35.4999 27.1C36.1999 26.4 36.5999 25.5 36.5999 24.5C36.5999 23.5 36.1999 22.5 35.4999 21.8C34.0999 20.4 31.6999 20.4 30.1999 21.8C29.1332 23.0667 28.2332 24.5 27.4999 26.1C27.3999 26.4 27.0999 26.6 26.6999 26.7C26.2999 26.8 25.9999 26.6 25.6999 26.4L25.0999 25.7L20.0999 20.8L15.5999 25.3C16.8666 25.9667 18.0332 26.7667 19.0999 27.7C21.2999 30 21.1999 33.7 18.8999 36C16.5999 38.3 12.8999 38.4 10.5999 36.2C9.5999 35.1333 8.7999 33.9667 8.1999 32.7L3.5999 37.3L9.1999 42.8C9.4999 43.1 9.5999 43.5 9.5999 43.8C9.4999 44.2 9.2999 44.5 8.8999 44.7C7.36657 45.3667 5.96657 46.2333 4.6999 47.3C3.9999 48 3.5999 49 3.5999 50C3.5999 51.5 4.4999 52.9 5.8999 53.5C7.2999 54.1 8.8999 53.7 9.9999 52.7C11.0666 51.3667 11.9666 49.9333 12.6999 48.4C12.7999 48.1 13.1999 47.8 13.4999 47.8C13.8999 47.7 14.1999 47.9 14.4999 48.1L20.0999 53.7L36.5999 37.3ZM72.6999 37.3L67.0999 31.7C66.8999 31.4 66.6999 31.1 66.7999 30.7C66.8999 30.3 67.0999 30 67.3999 29.9C68.9332 29.1667 70.3666 28.2667 71.6999 27.2C72.3999 26.5 72.7999 25.5 72.7999 24.5C72.7999 23.5 72.3999 22.6 71.6999 21.9C70.1999 20.4 67.8999 20.4 66.3999 21.9C65.2666 23.1667 64.3666 24.5667 63.6999 26.1C63.4999 26.4 63.1999 26.7 62.8999 26.7C62.4999 26.8 62.0999 26.7 61.8999 26.4L56.2999 20.8L51.6999 25.3C52.9666 25.9667 54.1332 26.7667 55.1999 27.7C57.5999 30.1 57.5999 33.9 55.1999 36.2C54.0999 37.4 52.5999 38 50.9999 38C49.3999 38 47.7999 37.4 46.6999 36.2C45.7666 35.2 44.9666 34.0667 44.2999 32.8L39.7999 37.3L45.3999 42.9C45.6999 43.2 45.7999 43.5 45.6999 43.9C45.6999 44.2 45.3999 44.5 45.0999 44.7C43.5666 45.4333 42.1332 46.3333 40.7999 47.4C40.0999 48.1 39.6999 49 39.6999 50C39.6999 51.6 40.5999 52.9 42.0999 53.5C43.4999 54.1 45.0999 53.8 46.1999 52.7C47.2666 51.4333 48.1666 50.0333 48.8999 48.5C48.9999 48.1 49.2999 47.9 49.6999 47.8C49.9999 47.8 50.3999 47.9 50.6999 48.2L56.2999 53.8L72.6999 37.3Z" fill="white"/>
</g>
</g>
<defs>
<clipPath id="clip0_614_12118">
<rect width="76" height="57" fill="white"/>
</clipPath>
</defs>
</svg>
