<svg width="27" height="27" viewBox="0 0 27 27" fill="none" xmlns="http://www.w3.org/2000/svg">
<rect x="27" width="27" height="27" rx="13.5" transform="rotate(90 27 0)" fill="#202020"/>
<rect x="27" width="27" height="27" rx="13.5" transform="rotate(90 27 0)" fill="black" fill-opacity="0.2"/>
<rect x="27" width="27" height="27" rx="13.5" transform="rotate(90 27 0)" fill="black" fill-opacity="0.2"/>
<rect x="27" width="27" height="27" rx="13.5" transform="rotate(90 27 0)" fill="black" fill-opacity="0.2"/>
<rect x="27" width="27" height="27" rx="13.5" transform="rotate(90 27 0)" fill="black" fill-opacity="0.2"/>
<rect x="27" width="27" height="27" rx="13.5" transform="rotate(90 27 0)" fill="black" fill-opacity="0.2"/>
<rect x="27" width="27" height="27" rx="13.5" transform="rotate(90 27 0)" fill="black" fill-opacity="0.2"/>
<rect x="27" width="27" height="27" rx="13.5" transform="rotate(90 27 0)" fill="black" fill-opacity="0.2"/>
<rect x="27" width="27" height="27" rx="13.5" transform="rotate(90 27 0)" fill="black" fill-opacity="0.2"/>
<path d="M18.2914 19.5L19.5 18.2914L14.7086 13.5L19.5 8.70857L18.2914 7.5L13.5 12.2914L8.70857 7.5L7.5 8.70857L12.2914 13.5L7.5 18.2914L8.70857 19.5L13.5 14.7086L18.2914 19.5Z" fill="white"/>
</svg>
