<svg width="11" height="13" viewBox="0 0 11 13" fill="none" xmlns="http://www.w3.org/2000/svg">
<path d="M3.63562 1.88306H7.01062V0.945557C7.01062 0.640869 7.245 0.383057 7.57312 0.383057C7.87781 0.383057 8.13562 0.640869 8.13562 0.945557V1.88306H9.07312C9.89343 1.88306 10.5731 2.56274 10.5731 3.38306V10.8831C10.5731 11.7268 9.89343 12.3831 9.07312 12.3831H1.57312C0.72937 12.3831 0.0731201 11.7268 0.0731201 10.8831V3.38306C0.0731201 2.56274 0.72937 1.88306 1.57312 1.88306H2.51062V0.945557C2.51062 0.640869 2.745 0.383057 3.07312 0.383057C3.37781 0.383057 3.63562 0.640869 3.63562 0.945557V1.88306ZM1.19812 6.19556H3.07312V4.88306H1.19812V6.19556ZM1.19812 7.32056V8.82056H3.07312V7.32056H1.19812ZM4.19812 7.32056V8.82056H6.44812V7.32056H4.19812ZM7.57312 7.32056V8.82056H9.44812V7.32056H7.57312ZM9.44812 4.88306H7.57312V6.19556H9.44812V4.88306ZM9.44812 9.94556H7.57312V11.2581H9.07312C9.26062 11.2581 9.44812 11.094 9.44812 10.8831V9.94556ZM6.44812 9.94556H4.19812V11.2581H6.44812V9.94556ZM3.07312 9.94556H1.19812V10.8831C1.19812 11.094 1.36218 11.2581 1.57312 11.2581H3.07312V9.94556ZM6.44812 4.88306H4.19812V6.19556H6.44812V4.88306Z" fill="#111214"/>
</svg>
