<svg width="31" height="30" viewBox="0 0 31 30" fill="none" xmlns="http://www.w3.org/2000/svg">
<path d="M12.4377 18.9375L23.0315 8.34375C23.2815 8.09375 23.5731 7.96875 23.9065 7.96875C24.2398 7.96875 24.5315 8.09375 24.7815 8.34375C25.0315 8.59375 25.1565 8.89083 25.1565 9.235C25.1565 9.57917 25.0315 9.87583 24.7815 10.125L13.3127 21.625C13.0627 21.875 12.7711 22 12.4377 22C12.1044 22 11.8127 21.875 11.5627 21.625L6.18773 16.25C5.93773 16 5.81773 15.7033 5.82773 15.36C5.83773 15.0167 5.96814 14.7196 6.21898 14.4688C6.46981 14.2179 6.76689 14.0929 7.11023 14.0937C7.45356 14.0946 7.75023 14.2196 8.00023 14.4688L12.4377 18.9375Z" fill="#076BB6"/>
</svg>
