<svg width="66" height="53" viewBox="0 0 66 53" fill="none" xmlns="http://www.w3.org/2000/svg">
<path d="M28.8653 52.958L22.6619 51.158C22.011 50.9749 21.6449 50.2936 21.828 49.6427L35.7093 1.82579C35.8924 1.17494 36.5737 0.80884 37.2246 0.991891L43.428 2.79189C44.0788 2.97494 44.4449 3.6563 44.2619 4.30715L30.3805 52.1241C30.1873 52.7749 29.5161 53.1512 28.8653 52.958ZM17.272 41.5478L21.6958 36.8292C22.1636 36.3309 22.1331 35.5377 21.6144 35.08L12.4008 26.9749L21.6144 18.8699C22.1331 18.4122 22.1737 17.619 21.6958 17.1207L17.272 12.4021C16.8144 11.9139 16.0415 11.8834 15.5432 12.3512L0.888983 26.08C0.370339 26.558 0.370339 27.3817 0.888983 27.8597L15.5432 41.5987C16.0415 42.0665 16.8144 42.0461 17.272 41.5478ZM50.5466 41.6088L65.2009 27.8699C65.7195 27.3919 65.7195 26.5682 65.2009 26.0902L50.5466 12.341C50.0585 11.8834 49.2856 11.9038 48.8178 12.3919L44.3941 17.1105C43.9263 17.6088 43.9568 18.4021 44.4754 18.8597L53.689 26.9749L44.4754 35.08C43.9568 35.5377 43.9161 36.3309 44.3941 36.8292L48.8178 41.5478C49.2754 42.0461 50.0483 42.0665 50.5466 41.6088Z" fill="url(#paint0_linear_147_3051)"/>
<defs>
<linearGradient id="paint0_linear_147_3051" x1="33.0449" y1="0.944824" x2="33.0449" y2="53.0087" gradientUnits="userSpaceOnUse">
<stop stop-color="#54FFD4"/>
<stop offset="1" stop-color="#2C1CD8"/>
</linearGradient>
</defs>
</svg>
