<svg width="66" height="53" viewBox="0 0 66 53" fill="none" xmlns="http://www.w3.org/2000/svg">
<path d="M26.4015 27.0416C27.0362 27.6764 28.0651 27.6764 28.6998 27.0416L29.8485 25.8929C30.4833 25.2582 30.4833 24.2293 29.8485 23.5946L26.2207 19.9678L29.8475 16.34C30.4823 15.7052 30.4823 14.6764 29.8475 14.0416L28.6988 12.8929C28.0641 12.2582 27.0352 12.2582 26.4005 12.8929L20.4753 18.8181C19.8405 19.4529 19.8405 20.4817 20.4753 21.1164L26.4015 27.0416ZM36.1525 25.8939L37.3012 27.0426C37.9359 27.6774 38.9648 27.6774 39.5995 27.0426L45.5247 21.1175C46.1595 20.4827 46.1595 19.4539 45.5247 18.8191L39.5995 12.8939C38.9648 12.2592 37.9359 12.2592 37.3012 12.8939L36.1525 14.0426C35.5177 14.6774 35.5177 15.7062 36.1525 16.341L39.7793 19.9678L36.1525 23.5956C35.5177 24.2304 35.5177 25.2592 36.1525 25.8939ZM63.875 42.7178H39.2502C39.175 44.7297 37.7562 45.9678 35.925 45.9678H29.75C27.8518 45.9678 26.3964 44.1935 26.4218 42.7178H2.125C1.23125 42.7178 0.5 43.449 0.5 44.3428V45.9678C0.5 49.5428 3.425 52.4678 7 52.4678H59C62.575 52.4678 65.5 49.5428 65.5 45.9678V44.3428C65.5 43.449 64.7688 42.7178 63.875 42.7178ZM59 5.34277C59 2.66152 56.8063 0.467773 54.125 0.467773H11.875C9.19375 0.467773 7 2.66152 7 5.34277V39.4678H59V5.34277ZM52.5 32.9678H13.5V6.96777H52.5V32.9678Z" fill="url(#paint0_linear_147_3053)"/>
<defs>
<linearGradient id="paint0_linear_147_3053" x1="33" y1="0.467773" x2="33" y2="52.4678" gradientUnits="userSpaceOnUse">
<stop stop-color="#54FFD4"/>
<stop offset="1" stop-color="#2C1CD8"/>
</linearGradient>
</defs>
</svg>
