<svg width="75" height="76" viewBox="0 0 75 76" fill="none" xmlns="http://www.w3.org/2000/svg">
<g clip-path="url(#clip0_614_12125)">
<mask id="mask0_614_12125" style="mask-type:luminance" maskUnits="userSpaceOnUse" x="-1065" y="-1962" width="1366" height="4646">
<path d="M-1065 -1962H301V2684H-1065V-1962Z" fill="white"/>
</mask>
<g mask="url(#mask0_614_12125)">
<path fill-rule="evenodd" clip-rule="evenodd" d="M74.4999 2.20005V25.3C74.4999 25.9 74.0999 26.4001 73.5999 26.7001C73.3999 26.7667 73.1999 26.8 72.9999 26.8C72.5999 26.8 72.2999 26.6 71.9999 26.4L66.4999 20.9L51.7999 35.7001C51.4999 36 51.0999 36.1 50.7999 36.1C50.3999 36.1 49.9999 36 49.6999 35.7001C49.1999 35.1001 49.1999 34.2 49.6999 33.6L64.4999 18.9L56.3999 10.8L38.0999 29.1L40.3999 31.4C40.8999 32 40.8999 32.9001 40.3999 33.4001C40.0999 33.7001 39.6999 33.9001 39.2999 33.9001C38.9999 33.9001 38.5999 33.7001 38.2999 33.4001L18.0999 13.2L2.4999 28.7001C2.1999 29 1.7999 29.2001 1.4999 29.2001C1.0999 29.2001 0.699902 29 0.399902 28.7001C-0.100098 28.2001 -0.100098 27.3001 0.399902 26.7001L16.9999 10.1C17.5999 9.50005 18.4999 9.50005 19.0999 10.1L35.9999 27L54.2999 8.70005L48.8999 3.30005C48.4999 2.80005 48.2999 2.20005 48.5999 1.70005C48.7999 1.10005 49.2999 0.800049 49.8999 0.800049H72.9999C73.7999 0.800049 74.4999 1.40005 74.4999 2.20005ZM71.5999 3.70005H53.3999L71.5999 21.8V3.70005Z" fill="white"/>
<path d="M48.2002 37.2001C47.9002 37.0001 47.5002 36.8 47.2002 36.8C46.8002 36.8 46.4002 37.0001 46.1002 37.2001C45.9002 37.5001 45.7002 37.9 45.7002 38.3C45.7002 38.6 45.9002 39 46.1002 39.3C46.4002 39.6 46.8002 39.7001 47.2002 39.7001C47.5002 39.7001 47.9002 39.6 48.2002 39.3C48.5002 39 48.6002 38.6 48.6002 38.3C48.6002 37.9 48.5002 37.5001 48.2002 37.2001Z" fill="white"/>
<path d="M27.9999 39.4001L20.0999 31.5001L22.4999 29.1001C22.9999 28.6001 22.9999 27.6001 22.4999 27.1001C21.8999 26.5001 20.9999 26.5001 20.3999 27.1001L0.399902 47.0001C-0.100098 47.6001 -0.100098 48.5001 0.399902 49.1001C0.699902 49.4001 1.0999 49.5001 1.4999 49.5001C1.7999 49.5001 2.1999 49.4001 2.4999 49.1001L18.0999 33.5001L25.8999 41.4001C26.1999 41.7001 26.5999 41.8001 26.9999 41.8001C27.2999 41.8001 27.6999 41.7001 27.9999 41.4001C28.5999 40.8001 28.5999 39.9001 27.9999 39.4001Z" fill="white"/>
<path d="M37.2998 54.1001H37.1998C36.3998 54.1001 35.7998 54.8001 35.7998 55.6001C35.7998 56.4001 36.3998 57.0001 37.1998 57.0001H37.2998C38.0998 57.0001 38.6998 56.4001 38.6998 55.6001C38.6998 54.8001 38.0998 54.1001 37.2998 54.1001Z" fill="white"/>
<path fill-rule="evenodd" clip-rule="evenodd" d="M74.5 73.8001C74.5 74.6001 73.8 75.2001 73 75.2001H1.5C0.7 75.2001 0 74.6001 0 73.8001C0 73.0001 0.7 72.3001 1.5 72.3001H4V65.8001C4 65.1001 4.5 64.6001 5.1 64.4001L11.9 62.7001L14.3 56.9001L10.7 50.9001C10.4 50.3001 10.4 49.6001 10.9 49.1001L16.6 43.5001C17 43.0001 17.8 42.9001 18.3 43.3001L24.3 46.8001L30.1 44.4001L31.8 37.7001C32 37.0001 32.6 36.6001 33.2 36.6001H41.2C41.9 36.6001 42.5 37.0001 42.6 37.7001L44.3 44.4001L50.2 46.8001L56.1 43.3001C56.7 42.9001 57.4 43.0001 57.9 43.5001L63.5 49.1001C64 49.6001 64.1 50.3001 63.8 50.9001L60.2 56.9001L62.6 62.7001L69.4 64.4001C70 64.6001 70.5 65.1001 70.5 65.8001V72.3001H73C73.8 72.3001 74.5 73.0001 74.5 73.8001ZM67.5 66.9001L61.2 65.4001C60.7 65.2001 60.4 64.9001 60.2 64.5001L57.2 57.3001C57 56.9001 57.1 56.4001 57.3 56.0001L60.7 50.4001L56.7 46.3001L51 49.7001C50.6 50.0001 50.1 50.0001 49.7 49.8001L42.5 46.8001C42.1 46.7001 41.8 46.3001 41.7 45.8001L40.1 39.5001H34.4L32.8 45.8001C32.7 46.3001 32.4 46.7001 31.9 46.8001L24.7 49.8001C24.3 50.0001 23.8 50.0001 23.4 49.7001L17.8 46.3001L13.8 50.4001L17.2 56.0001C17.4 56.4001 17.4 56.9001 17.3 57.3001L14.3 64.5001C14.1 64.9001 13.7 65.2001 13.3 65.4001L6.9 66.9001V72.3001H21.8C21 67.4001 22.6 62.3001 26.2 58.7001C27.8 57.1001 29.6333 55.9001 31.7 55.1001C32.5 54.8001 33.3 55.2001 33.6 56.0001C33.9 56.7001 33.5 57.6001 32.7 57.9001C31.0333 58.5001 29.5333 59.4668 28.2 60.8001C25.2 63.8001 23.9 68.2001 24.7 72.3001H49.7C50.6 68.2001 49.3 63.8001 46.2 60.8001C44.9333 59.4668 43.4667 58.5001 41.8 57.9001C41 57.6001 40.7 56.7001 40.9 56.0001C41.2 55.2001 42.1 54.9001 42.8 55.2001C44.8667 55.9334 46.7 57.1001 48.3 58.7001C51.9 62.3001 53.5 67.4001 52.7 72.3001H67.5V66.9001Z" fill="white"/>
</g>
</g>
<defs>
<clipPath id="clip0_614_12125">
<rect width="75" height="76" fill="white"/>
</clipPath>
</defs>
</svg>
