<svg width="100" height="100" viewBox="0 0 100 100" fill="none" xmlns="http://www.w3.org/2000/svg">
<circle cx="50" cy="50" r="50" fill="#2C2C2E"/>
<g clip-path="url(#clip0_542_14816)">
<mask id="mask0_542_14816" style="mask-type:luminance" maskUnits="userSpaceOnUse" x="-1023" y="-753" width="1337" height="4546">
<path d="M-1022.67 -752.674H313.63V3792.33H-1022.67V-752.674Z" fill="white"/>
</mask>
<g mask="url(#mask0_542_14816)">
<path fill-rule="evenodd" clip-rule="evenodd" d="M50.2823 55.4674C50.1845 55.4674 49.9888 55.3696 49.891 55.2717C49.5975 55.0761 49.2062 54.9783 49.0106 54.9783C48.6193 54.9783 48.3258 55.0761 48.0323 55.2717C47.8367 55.4674 47.5432 55.4674 47.3475 55.2717C47.0541 55.1739 46.8584 54.9783 46.8584 54.7826V51.5543C46.8584 51.3587 46.9562 51.163 47.1519 51.0652C47.3475 50.8696 47.5432 50.7717 47.7388 50.8696C48.0323 50.9674 48.5214 50.9674 48.9127 50.9674C49.4019 50.9674 49.6954 50.9674 50.0867 50.8696C50.2823 50.8696 50.478 50.8696 50.5758 51.0652C50.7714 51.163 50.8693 51.3587 50.8693 51.4565L50.9671 54.6848C50.9671 54.9782 50.8693 55.1739 50.5758 55.2717C50.478 55.4674 50.3801 55.4674 50.2823 55.4674ZM48.3258 52.3369V53.7065C48.7171 53.6087 49.2062 53.6087 49.5975 53.7065V52.3369C49.2062 52.3369 48.7171 52.3369 48.3258 52.3369Z" fill="white"/>
<path fill-rule="evenodd" clip-rule="evenodd" d="M49.0105 71.0217C48.1301 71.0217 47.3474 70.7282 46.6627 70.0434C46.1735 69.5543 45.7822 68.6739 45.7822 67.8913V56.8369C45.7822 55.8587 46.3692 54.8804 47.1518 54.2934C48.3257 53.5108 49.7931 53.6087 50.6735 54.2934H50.7714L50.8692 54.3913C51.0648 54.4891 51.1627 54.4891 51.2605 54.6847C51.7496 55.1739 52.1409 56.0543 52.1409 56.8369V67.8913C52.1409 69.6521 50.6735 71.0217 49.0105 71.0217ZM49.0105 55.076C48.6192 55.076 48.3257 55.1739 48.0322 55.3695C47.5431 55.663 47.1518 56.25 47.1518 56.8369V67.8913C47.1518 68.3804 47.3474 68.7717 47.6409 69.163C48.0322 69.4565 48.5214 69.6521 49.0105 69.6521C49.9887 69.6521 50.7714 68.8695 50.7714 67.8913V56.8369C50.7714 56.3478 50.5757 55.9565 50.2822 55.663L50.1844 55.5652C50.0866 55.4673 49.8909 55.4673 49.7931 55.3695C49.5974 55.1739 49.304 55.076 49.0105 55.076Z" fill="white"/>
<path fill-rule="evenodd" clip-rule="evenodd" d="M53.5108 44.0217H44.3152C43.9239 44.0217 43.6304 43.8261 43.6304 43.3369V36.0978C43.6304 35.7065 43.9239 35.413 44.3152 35.413H47.3478C47.4456 35.413 47.5434 35.5109 47.6412 35.5109L49.3043 36.5869H53.5108C53.9021 36.5869 54.1956 36.8804 54.1956 37.2717V43.3369C54.1956 43.8261 53.9021 44.0217 53.5108 44.0217ZM44.9999 42.6522H52.826V37.9565H49.1086C49.0108 37.9565 48.8152 37.8587 48.7173 37.7609L47.1521 36.7826H44.9999V42.6522Z" fill="white"/>
<path fill-rule="evenodd" clip-rule="evenodd" d="M48.9128 49.4022C43.5324 49.4022 39.228 45.0978 39.228 39.7174C39.228 34.3369 43.5324 30.0326 48.9128 30.0326C54.2932 30.0326 58.5976 34.3369 58.5976 39.7174C58.5976 45.0978 54.2932 49.4022 48.9128 49.4022ZM48.9128 31.4022C44.315 31.4022 40.5976 35.1195 40.5976 39.7174C40.5976 44.3152 44.315 48.0326 48.9128 48.0326C53.5106 48.0326 57.228 44.3152 57.228 39.7174C57.228 35.1195 53.5106 31.4022 48.9128 31.4022Z" fill="white"/>
<path fill-rule="evenodd" clip-rule="evenodd" d="M48.9127 52.4348C41.8692 52.4348 36.1953 46.7609 36.1953 39.7174C36.1953 32.6739 41.8692 27 48.9127 27C55.9562 27 61.6301 32.6739 61.6301 39.7174C61.6301 46.7609 55.9562 52.4348 48.9127 52.4348ZM48.9127 28.3696C42.6518 28.3696 37.5649 33.4565 37.5649 39.7174C37.5649 45.9783 42.6518 51.0652 48.9127 51.0652C55.1736 51.0652 60.2605 45.9783 60.2605 39.7174C60.2605 33.4565 55.1736 28.3696 48.9127 28.3696Z" fill="white"/>
<path d="M51.2606 41.087H46.6628C46.2715 41.087 45.978 40.7935 45.978 40.3044C45.978 39.913 46.2715 39.6196 46.6628 39.6196H51.2606C51.6519 39.6196 51.9454 39.913 51.9454 40.3044C51.9454 40.7935 51.6519 41.087 51.2606 41.087Z" fill="white"/>
<path d="M62.1196 54.2935C61.9239 54.2935 61.7283 54.1957 61.5326 54.0978L59.1848 50.6739C58.9891 50.3804 59.087 49.8913 59.3804 49.6957C59.7718 49.5 60.1631 49.5978 60.3587 49.8913L62.7065 53.3152C62.9022 53.6087 62.9022 54.0978 62.5109 54.2935C62.4131 54.2935 62.2174 54.2935 62.1196 54.2935Z" fill="white"/>
<path fill-rule="evenodd" clip-rule="evenodd" d="M63.7827 59.674C63.4892 59.674 63.1957 59.674 62.9022 59.5761C62.0218 59.3805 61.1414 58.7935 60.6522 58.0109C60.1631 57.1305 59.9675 56.1522 60.2609 55.174C60.4566 54.2935 61.0435 53.5109 61.924 52.924C62.7066 52.4348 63.6848 52.2392 64.6631 52.5327C65.6414 52.7283 66.424 53.3153 66.9131 54.1957C67.4022 54.9783 67.5979 55.9566 67.3044 56.9348C67.0435 57.9131 66.5218 58.6631 65.7392 59.1848C65.0544 59.4783 64.4675 59.674 63.7827 59.674ZM62.6088 54.0979C62.0218 54.4892 61.7283 54.9783 61.5327 55.4674C61.4348 56.0544 61.5327 56.6414 61.8262 57.2283C62.2175 57.8153 62.7066 58.1088 63.1957 58.2066C63.8805 58.4022 64.3696 58.3044 64.9566 58.0109C65.4457 57.6196 65.837 57.1305 65.9348 56.6414C66.1305 55.9566 66.0327 55.4674 65.7392 54.8805C65.3479 54.2935 64.8588 54.0001 64.2718 53.8044C63.6848 53.7066 63.0979 53.8044 62.6088 54.0979Z" fill="white"/>
<path d="M62.6087 34.0435C62.413 34.0435 62.1195 33.9457 62.0217 33.75C61.8261 33.3587 61.9239 32.9674 62.2174 32.7718L63.7826 31.7935C64.0761 31.5978 64.5652 31.6957 64.7608 31.9892C64.9565 32.3805 64.8587 32.7718 64.5652 32.9674L63 33.9457C62.9021 34.0435 62.7065 34.0435 62.6087 34.0435Z" fill="white"/>
<path fill-rule="evenodd" clip-rule="evenodd" d="M66.6196 34.5326C65.1522 34.5326 63.6848 33.6522 63.0978 31.9891C62.9022 31.1087 62.9022 30.1304 63.3913 29.25C63.7826 28.3696 64.5652 27.7826 65.4456 27.4891C66.4239 27.1956 67.4022 27.2935 68.2826 27.6848C69.163 28.0761 69.75 28.8587 70.0435 29.8369C70.6304 31.7935 69.6522 33.8478 67.6956 34.4348C67.4022 34.5326 67.0109 34.5326 66.6196 34.5326ZM66.6196 28.663C66.4239 28.663 66.1304 28.7609 65.9348 28.7609C65.4456 28.9565 64.9565 29.4456 64.663 29.9348C64.3696 30.4239 64.2717 31.1087 64.5652 31.5978C64.9565 32.7717 66.1304 33.4565 67.4022 33.0652C67.9891 32.8696 68.4783 32.4783 68.6739 31.9891C68.9674 31.4022 69.0652 30.8152 68.8696 30.2283C68.6739 29.6413 68.2826 29.25 67.7935 28.9565C67.3043 28.7609 67.0109 28.663 66.6196 28.663Z" fill="white"/>
<path d="M64.4673 44.3152H62.9021C62.5108 44.3152 62.2173 44.0218 62.2173 43.6305C62.2173 43.1413 62.5108 42.9457 62.9021 42.9457H64.4673C64.8586 42.9457 65.1521 43.1413 65.1521 43.6305C65.1521 44.0218 64.8586 44.3152 64.4673 44.3152Z" fill="white"/>
<path fill-rule="evenodd" clip-rule="evenodd" d="M67.402 47.3478C66.5216 47.3478 65.6412 46.9565 64.9564 46.3696C64.2716 45.6848 63.8803 44.8044 63.7825 43.8261C63.6846 42.8478 64.0759 41.8696 64.7607 41.1848C65.4455 40.5 66.3259 40.1087 67.3042 40.0109C69.2607 39.9131 71.0216 41.4783 71.0216 43.5326C71.1194 45.4891 69.5542 47.25 67.5977 47.3478C67.4998 47.3478 67.4998 47.3478 67.402 47.3478ZM67.402 41.3804H67.3042C66.7172 41.3804 66.1303 41.6739 65.739 42.1631C65.3477 42.6196 65.152 43.1739 65.152 43.8261C65.152 44.4131 65.4455 45 65.9346 45.3913C66.3912 45.7826 66.9455 45.9783 67.5977 45.9783C68.7716 45.8804 69.7498 44.9022 69.7498 43.6304C69.652 42.3587 68.6738 41.3804 67.402 41.3804Z" fill="white"/>
<path d="M35.5108 54.0978H35.3151C34.9238 53.9022 34.826 53.5109 35.0217 53.1196L36.6847 49.8913C36.7825 49.5 37.1738 49.4022 37.5651 49.5978C37.8586 49.6957 38.0543 50.087 37.8586 50.4783L36.1956 53.8043C35.9999 54 35.8043 54.0978 35.5108 54.0978Z" fill="white"/>
<path fill-rule="evenodd" clip-rule="evenodd" d="M34.239 59.6739C33.7499 59.6739 33.2608 59.576 32.7716 59.3804C30.9129 58.5978 30.1303 56.4456 30.9129 54.5869C31.6955 52.7282 33.8477 51.9456 35.7064 52.6304C37.5651 53.5108 38.3477 55.663 37.5651 57.5217C36.9782 58.8913 35.6086 59.6739 34.239 59.6739ZM32.1847 55.1739C31.6955 56.3478 32.2825 57.6195 33.3586 58.1087C34.5325 58.5978 35.8042 58.0108 36.2934 56.9347C36.7825 55.7608 36.1955 54.4891 35.1195 54C33.9455 53.5108 32.6738 54.0978 32.1847 55.1739Z" fill="white"/>
<path d="M35.5109 33.4565C35.5109 33.4565 35.3152 33.4565 35.3152 33.3587L33.6522 32.6739C33.2609 32.5761 33.163 32.1848 33.2609 31.7935C33.4565 31.5 33.8478 31.3044 34.1413 31.5L35.8043 32.1848C36.1957 32.2826 36.3913 32.6739 36.1957 33.0652C36.0978 33.3587 35.8043 33.4565 35.5109 33.4565Z" fill="white"/>
<path fill-rule="evenodd" clip-rule="evenodd" d="M31.1083 34.5326C31.0431 34.5326 30.9779 34.5326 30.9126 34.5326C28.9561 34.4348 27.3909 32.6739 27.4887 30.7174C27.5865 28.7608 29.3474 27.0978 31.3039 27.2935C33.3583 27.3913 34.9235 29.1521 34.8257 31.1087C34.7279 33.0652 33.0648 34.5326 31.1083 34.5326ZM31.1083 28.663C29.9344 28.663 28.9561 29.6413 28.8583 30.8152C28.7605 31.9891 29.7387 33.163 31.0105 33.163C32.2822 33.2608 33.3583 32.2826 33.4561 31.1087C33.4561 29.8369 32.4779 28.7608 31.3039 28.663C31.2061 28.663 31.2061 28.663 31.1083 28.663Z" fill="white"/>
<path d="M35.0216 44.5109H33.5542C33.1629 44.5109 32.8694 44.1196 32.9672 43.8261C32.9672 43.337 33.2607 43.1414 33.652 43.1414L35.0216 43.2392C35.4129 43.2392 35.7063 43.6305 35.6085 43.924C35.7063 44.3153 35.315 44.5109 35.0216 44.5109Z" fill="white"/>
<path fill-rule="evenodd" clip-rule="evenodd" d="M30.6194 47.3478C30.5215 47.3478 30.4237 47.3478 30.3259 47.3478C29.3476 47.3478 28.4672 46.8587 27.8802 46.0761C27.1954 45.2935 26.902 44.3152 26.9998 43.3369C27.0976 42.4565 27.5867 41.4783 28.2715 40.8913C29.0541 40.3043 29.9346 40.0109 30.9128 40.1087C32.9672 40.3043 34.4346 41.9674 34.2389 44.0217C34.1411 45.8804 32.478 47.3478 30.6194 47.3478ZM30.6194 41.4783C30.1302 41.4783 29.6411 41.6739 29.2498 41.9674C28.7607 42.4565 28.4672 42.9456 28.3694 43.5326C28.2715 44.1196 28.565 44.7065 28.9563 45.1956C29.3476 45.6848 29.9346 45.8804 30.4237 45.9783C31.6954 46.1739 32.7715 45.1956 32.9672 43.9239C32.9672 43.3369 32.7715 42.75 32.3802 42.2609C31.9889 41.7717 31.402 41.4783 30.9128 41.4783C30.7824 41.4783 30.6846 41.4783 30.6194 41.4783Z" fill="white"/>
</g>
</g>
<defs>
<clipPath id="clip0_542_14816">
<rect width="45" height="45" fill="white" transform="translate(27 27)"/>
</clipPath>
</defs>
</svg>
