<svg width="56" height="56" viewBox="0 0 56 56" fill="none" xmlns="http://www.w3.org/2000/svg">
<rect x="4" y="4" width="48" height="48" rx="24" fill="#F4EBFF"/>
<rect x="4" y="4" width="48" height="48" rx="24" stroke="#F9F5FF" stroke-width="8"/>
<path fill-rule="evenodd" clip-rule="evenodd" d="M28 37C29.1819 37 30.3522 36.7672 31.4442 36.3149C32.5361 35.8626 33.5282 35.1997 34.364 34.364C35.1997 33.5282 35.8626 32.5361 36.3149 31.4442C36.7672 30.3522 37 29.1819 37 28C37 26.8181 36.7672 25.6478 36.3149 24.5558C35.8626 23.4639 35.1997 22.4718 34.364 21.636C33.5282 20.8003 32.5361 20.1374 31.4442 19.6851C30.3522 19.2328 29.1819 19 28 19C25.6131 19 23.3239 19.9482 21.636 21.636C19.9482 23.3239 19 25.6131 19 28C19 30.3869 19.9482 32.6761 21.636 34.364C23.3239 36.0518 25.6131 37 28 37ZM27.768 31.64L32.768 25.64L31.232 24.36L26.932 29.519L24.707 27.293L23.293 28.707L26.293 31.707L27.067 32.481L27.768 31.64Z" fill="#076BB6"/>
</svg>
