<svg width="100" height="100" viewBox="0 0 100 100" fill="none" xmlns="http://www.w3.org/2000/svg">
<circle cx="50" cy="50" r="50" fill="#2C2C2E"/>
<path fill-rule="evenodd" clip-rule="evenodd" d="M51.3958 29.6188L69.1041 39.5146C69.624 39.7741 70.0611 40.1734 70.3666 40.6677C70.6721 41.1619 70.8337 41.7315 70.8333 42.3125V45.3125C70.8333 46.75 69.6666 47.9167 68.2291 47.9167H66.6666V64.5834H68.75C69.3025 64.5834 69.8324 64.8029 70.2231 65.1936C70.6138 65.5843 70.8333 66.1142 70.8333 66.6667C70.8333 67.2192 70.6138 67.7492 70.2231 68.1399C69.8324 68.5306 69.3025 68.75 68.75 68.75H31.25C30.6974 68.75 30.1675 68.5306 29.7768 68.1399C29.3861 67.7492 29.1666 67.2192 29.1666 66.6667C29.1666 66.1142 29.3861 65.5843 29.7768 65.1936C30.1675 64.8029 30.6974 64.5834 31.25 64.5834H33.3333V47.9167H31.7708C30.3333 47.9167 29.1666 46.75 29.1666 45.3125V42.3125C29.1666 41.225 29.7291 40.225 30.6375 39.6584L48.602 29.6188C49.0361 29.4017 49.5147 29.2887 50 29.2887C50.4852 29.2887 50.9618 29.4017 51.3958 29.6188ZM60.4166 47.9167H39.5833V64.5834H43.75V52.0834H47.9166V64.5834H52.0833V52.0834H56.25V64.5834H60.4166V47.9167ZM50 37.5C49.4474 37.5 48.9175 37.7195 48.5268 38.1102C48.1361 38.5009 47.9166 39.0308 47.9166 39.5834C47.9166 40.1359 48.1361 40.6658 48.5268 41.0565C48.9175 41.4472 49.4474 41.6667 50 41.6667C50.5525 41.6667 51.0824 41.4472 51.4731 41.0565C51.8638 40.6658 52.0833 40.1359 52.0833 39.5834C52.0833 39.0308 51.8638 38.5009 51.4731 38.1102C51.0824 37.7195 50.5525 37.5 50 37.5Z" fill="white"/>
</svg>
