<svg width="24" height="24" viewBox="0 0 24 24" fill="none" xmlns="http://www.w3.org/2000/svg">
<path d="M6.72818 2.31644L8.38847 1.81586C8.93642 1.65092 9.52566 1.69094 10.0463 1.92846C10.5669 2.16598 10.9833 2.58477 11.2179 3.10672L12.3819 5.69529C12.5839 6.14437 12.6402 6.64544 12.5429 7.12816C12.4456 7.61087 12.1996 8.05099 11.8393 8.38672L10.0676 10.0376C9.83018 10.263 10.0102 11.1416 10.8776 12.645C11.7459 14.1493 12.417 14.7442 12.7265 14.6516L15.0476 13.9419C15.5181 13.798 16.0218 13.8049 16.4882 13.9617C16.9546 14.1184 17.3602 14.4172 17.6482 14.8162L19.3025 17.109C19.6366 17.572 19.7913 18.1406 19.7379 18.709C19.6844 19.2775 19.4265 19.8072 19.0119 20.1999L17.733 21.411C17.3202 21.802 16.811 22.0764 16.2575 22.2064C15.704 22.3363 15.1259 22.3171 14.5822 22.1507C11.9028 21.3304 9.42132 18.8962 7.10447 14.8822C4.78247 10.8622 3.90561 7.47129 4.51675 4.70101C4.64001 4.1428 4.90991 3.62756 5.29863 3.2084C5.68735 2.78925 6.18082 2.48135 6.72818 2.31644Z" fill="black"/>
</svg>
