<svg width="15" height="16" viewBox="0 0 15 16" fill="none" xmlns="http://www.w3.org/2000/svg">
<g opacity="0.9">
<path d="M1.25061 7.99939L10.0006 7.99939M10.0006 7.99939L7.81311 6.12439M10.0006 7.99939L7.81311 9.87439" stroke="black" stroke-width="1.5" stroke-linecap="round" stroke-linejoin="round"/>
<path d="M5.62622 4.875C5.63379 3.51561 5.69407 2.77941 6.17431 2.29917C6.72348 1.75 7.60737 1.75 9.37513 1.75L10.0001 1.75C11.7679 1.75 12.6518 1.75 13.201 2.29917C13.7501 2.84835 13.7501 3.73223 13.7501 5.5L13.7501 10.5C13.7501 12.2678 13.7501 13.1517 13.201 13.7008C12.7207 14.1811 11.9845 14.2414 10.625 14.2489M5.62622 11.125C5.63379 12.4844 5.69407 13.2206 6.17431 13.7008C6.57511 14.1016 7.15418 14.2099 8.125 14.2392" stroke="black" stroke-width="1.5" stroke-linecap="round"/>
</g>
</svg>
