<svg width="20" height="20" viewBox="0 0 20 20" fill="none" xmlns="http://www.w3.org/2000/svg">
<path fill-rule="evenodd" clip-rule="evenodd" d="M5.4225 15.3425V2.38751H6.6725V15.3413L8.75 13.4363L9.595 14.3575L6.0475 17.6113L2.5 14.3575L3.345 13.4363L5.4225 15.3425ZM13.285 2.50001H15.465L16.6912 6.58876L16.7163 6.65251C16.8432 6.98193 16.964 7.31365 17.0788 7.64751C17.1788 7.93751 17.28 8.25626 17.3575 8.54751C17.43 8.81751 17.5 9.12876 17.5 9.37501H16.25C16.25 9.30876 16.2225 9.14126 16.15 8.87001C16.0739 8.59453 15.9893 8.32148 15.8962 8.05126C15.8237 7.83943 15.7482 7.62857 15.67 7.41876H13.08C13.0138 7.59626 12.9338 7.81751 12.8538 8.05126C12.7587 8.32876 12.6663 8.61751 12.6 8.87001C12.5275 9.14126 12.5 9.30876 12.5 9.37501H11.25C11.25 9.12876 11.32 8.81751 11.3925 8.54626C11.47 8.25626 11.5712 7.93751 11.6712 7.64751C11.7857 7.31355 11.9065 6.98182 12.0337 6.65251L12.0588 6.59001L13.285 2.50001ZM13.49 6.16876H15.26L14.535 3.75001H14.215L13.49 6.16876ZM11.25 11.25H17.5V12.8125L12.9163 16.25H17.5V17.5H11.25V15.9375L15.8337 12.5H11.25V11.25Z" fill="black"/>
</svg>
