<svg width="75" height="75" viewBox="0 0 75 75" fill="none" xmlns="http://www.w3.org/2000/svg">
<path fill-rule="evenodd" clip-rule="evenodd" d="M40.625 15V9.375H47.1797V16.17C48.2789 16.7138 49.3312 17.3479 50.3256 18.0656L51.2883 17.4806L55.948 14.671L58.6369 19.5394L62.9362 27.3356L65.625 32.2069L60.9707 35.0194L60.0081 35.596C60.0619 36.2344 60.0888 36.8672 60.0888 37.5C60.0888 38.1328 60.0619 38.7656 60.0081 39.404L60.9707 39.9806L65.625 42.7931L62.9362 47.6644L58.6369 55.4606L55.948 60.329L51.2883 57.5194L50.3256 56.9344C49.3312 57.6521 48.2789 58.2862 47.1797 58.83V65.625H40.625V60H41.8026V54.9094C44.876 54.0825 47.6185 52.4035 49.775 50.1056L53.9775 52.6481L58.2824 44.8519L54.0717 42.3094C54.4749 40.7766 54.7117 39.1679 54.7117 37.5C54.7117 35.8321 54.4749 34.2234 54.0717 32.6906L58.2824 30.1481L53.9775 22.3519L49.775 24.8944C47.6185 22.5965 44.876 20.9175 41.8026 20.0906V15H40.625ZM48.2568 37.5C48.2568 42.5773 45.0419 46.8687 40.625 48.2684V42.0797C41.9898 41.0596 42.8792 39.3886 42.8792 37.5C42.8792 35.6114 41.9898 33.9404 40.625 32.9203V26.7316C45.0419 28.1313 48.2568 32.4227 48.2568 37.5ZM12.5 21.8752C12.5 15.5008 22.0429 10.2407 34.3751 9.47197V15.7361C29.8046 16.0632 25.6752 17.0977 22.6175 18.6265C19.8576 20.0064 18.75 21.3158 18.75 21.8752C18.75 22.4347 19.8576 23.7439 22.6175 25.1238C25.6752 26.6527 29.8046 27.6873 34.3751 28.0143V34.2785C28.1754 33.8919 22.6807 32.3704 18.749 30.1428L18.748 37.5001H18.75C18.75 38.0596 19.8576 39.369 22.6175 40.7489C25.6752 42.2777 29.8046 43.3122 34.3751 43.6393V49.9034C28.1743 49.5168 22.6788 47.9949 18.747 45.7666L18.7459 52.9005L18.7503 53.1341C18.9047 55.2768 25.3714 58.611 34.3751 59.2626V65.5285C22.3397 64.778 12.961 59.7501 12.5166 53.5834L12.5 53.1252V21.8752Z" fill="white"/>
</svg>
