<svg width="52" height="10" viewBox="0 0 52 10" fill="none" xmlns="http://www.w3.org/2000/svg">
<g clip-path="url(#clip0_497_10475)">
<path d="M47.2095 2.14511C46.4096 2.36839 45.5874 2.50208 44.758 2.54372L38.0745 3.26788C36.5625 3.44059 35.0713 3.7633 33.6232 4.23122C32.834 4.49687 32.0748 4.84422 31.3577 5.26763C30.5815 5.79067 29.7739 6.26548 28.9394 6.68937C28.4366 6.92475 27.8868 7.04288 27.3317 7.03485C26.7204 6.99929 26.1425 6.74454 25.704 6.31733C24.8602 5.44701 24.6277 4.39067 24.0763 3.71301C23.8482 3.38025 23.505 3.14361 23.1129 3.04864C22.6926 2.95547 22.2543 2.98545 21.8506 3.13501C20.9442 3.46471 20.1839 4.10496 19.7047 4.94208C19.1267 5.79912 18.675 6.77574 18.0172 7.69256C17.3771 8.67771 16.4285 9.42299 15.3199 9.8119C14.738 9.97806 14.1213 9.97806 13.5394 9.8119C12.9881 9.64838 12.4799 9.36477 12.0512 8.98144C11.2848 8.27808 10.6875 7.41046 10.3039 6.44355C9.91861 5.5533 9.63957 4.68962 9.25423 3.93224C8.81236 2.89696 8.01001 2.05707 6.99598 1.56839C5.98195 1.0797 4.82509 0.975374 3.74 1.27478C3.16364 1.42006 2.62491 1.68663 2.15977 2.05668C1.69463 2.42672 1.3138 2.89175 1.04267 3.42069C0.609026 4.237 0.40251 5.15478 0.444721 6.07816C0.461366 6.66979 0.587529 7.2532 0.816785 7.79886C0.969589 8.1842 1.07589 8.37687 1.04267 8.40344C1.00945 8.43002 0.849998 8.26392 0.624113 7.89852C0.297997 7.35353 0.0960956 6.74331 0.0328167 6.11137C-0.094422 5.10041 0.0716196 4.07419 0.511162 3.15494C0.798973 2.52958 1.21785 1.97339 1.73939 1.52406C2.26094 1.07472 2.87299 0.742746 3.53404 0.550618C4.3414 0.314967 5.19125 0.263063 6.02128 0.398719C6.85131 0.534375 7.64045 0.854153 8.33077 1.33458C9.08192 1.89588 9.6841 2.63266 10.0847 3.48048C10.5165 4.31094 10.8221 5.1879 11.2008 6.01836C11.535 6.84579 12.053 7.58641 12.7156 8.1842C13.0179 8.47482 13.3907 8.68159 13.7973 8.78412C14.204 8.88665 14.6303 8.88138 15.0342 8.76883C15.9058 8.44216 16.6489 7.84347 17.1536 7.06142C17.7316 6.25753 18.1833 5.28091 18.8145 4.33751C19.1355 3.84837 19.5172 3.4019 19.9505 3.00877C20.4071 2.61191 20.9377 2.30935 21.5118 2.11852C22.1043 1.91591 22.7412 1.88142 23.3521 2.01887C23.9719 2.17204 24.5177 2.53908 24.8934 3.05528C25.5977 3.99869 25.8368 5.04838 26.4082 5.57323C26.6675 5.83336 27.0118 5.99138 27.3782 6.01836C27.7818 6.02144 28.1811 5.93524 28.5475 5.7659C29.3497 5.36835 30.1284 4.9247 30.8794 4.43717C31.657 3.99144 32.4814 3.63273 33.3375 3.36754C34.8527 2.91438 36.4116 2.62265 37.9881 2.49722C40.8449 2.25805 43.1369 2.18496 44.7314 2.10523C45.5564 2.02687 46.3875 2.04025 47.2095 2.14511Z" fill="#2C2C2E"/>
<path d="M45.4762 6.27043C45.4231 6.13091 46.1406 5.73894 47.2235 5.08786C47.7683 4.76232 48.4127 4.36369 49.1036 3.89199C49.4491 3.65947 49.768 3.40036 50.1666 3.13462C50.3373 3.01854 50.4954 2.88494 50.6383 2.736C50.7579 2.61869 50.8527 2.47863 50.9173 2.32409C50.9506 2.19786 50.9173 2.2045 50.9173 2.158C50.821 2.06989 50.7009 2.01212 50.5719 1.9919L49.283 1.64644C48.4592 1.42056 47.7218 1.20131 47.1039 0.982074C45.8682 0.583453 45.1108 0.264552 45.1573 0.125035C45.2038 -0.0144824 46.001 0.0386685 47.2833 0.251266C47.9476 0.357565 48.6784 0.503725 49.5155 0.67646L50.8443 0.968783C51.184 1.03061 51.4955 1.198 51.7345 1.44713C51.8826 1.61504 51.9774 1.82315 52.0069 2.04505C52.0341 2.24899 52.0113 2.45647 51.9405 2.64963C51.8291 2.95058 51.6521 3.22293 51.4223 3.44687C51.235 3.63953 51.0254 3.80904 50.7978 3.95178C50.4124 4.23082 50.0205 4.47664 49.6484 4.70252C48.9845 5.09957 48.2916 5.44602 47.5756 5.73893C46.3399 6.25714 45.5294 6.4033 45.4762 6.27043Z" fill="#2C2C2E"/>
</g>
<defs>
<clipPath id="clip0_497_10475">
<rect width="52" height="9.86585" fill="white" transform="translate(0 0.0671387)"/>
</clipPath>
</defs>
</svg>
