<?xml version="1.0" encoding="utf-8"?>
<!-- Generator: Adobe Illustrator 26.0.2, SVG Export Plug-In . SVG Version: 6.00 Build 0)  -->
<svg version="1.1" id="Layer_1" xmlns="http://www.w3.org/2000/svg" xmlns:xlink="http://www.w3.org/1999/xlink" x="0px" y="0px"
	 viewBox="0 0 264 99.1" style="enable-background:new 0 0 264 99.1;" xml:space="preserve">
<style type="text/css">
	.st0{fill:#F18A00;}
	.st1{fill:#E85213;}
	.st2{fill:#FAC78A;}
	.st3{fill:#004370;}
	.st4{fill-rule:evenodd;clip-rule:evenodd;fill:#004370;}
</style>
<path class="st0" d="M67.9,92.9c-2.4,0-4.7,0-7.1-0.1c-0.9-1.3-1.7-2.6-2.4-3.9c2.5-0.5,4.8-1.2,7.1-2.2c10.8-5,18.4-15.9,18.4-28.7
	c0-1-0.1-2.1-0.2-3.1c-0.2-2.5-0.8-4.9-1.6-7.2c1.5-0.1,3,0,4.5,0.2c1.3,2,2.5,4,3.7,6.1c6.7,11.7,11.1,23.5,7.2,30.2
	C93.8,90.8,81.3,92.9,67.9,92.9 M44.3,92.8c-2.4,0.1-4.8,0.1-7.1,0.1c-13.4-0.1-25.9-2.1-29.7-8.8C3.6,77.4,8.1,65.6,14.7,54
	c1.2-2,2.4-4.1,3.7-6.1c1.5-0.2,3-0.2,4.6-0.2c-0.8,2.3-1.3,4.7-1.6,7.2c-0.1,1-0.2,2-0.2,3.1c0,12.7,7.6,23.7,18.5,28.6
	c2.2,1,4.6,1.8,7.1,2.2C46.1,90.2,45.3,91.5,44.3,92.8z M26.6,33.6c1.1-2.1,2.2-4.2,3.4-6.2C36.8,15.8,44.8,6,52.6,6
	c7.7,0,15.7,9.8,22.5,21.4c1.2,2,2.3,4.1,3.4,6.2c-0.6,1.4-1.3,2.8-2.2,4c-1.6-1.9-3.4-3.6-5.4-5c-5.2-3.7-11.5-5.9-18.3-5.9
	c-6.9,0-13.2,2.2-18.3,5.9c-2,1.5-3.8,3.1-5.4,5C28,36.3,27.2,35,26.6,33.6z"/>
<path class="st1" d="M70.9,32.6c1.6-1.6,3-3.3,4.2-5.2c1.2,2,2.3,4.1,3.4,6.2c-0.6,1.4-1.3,2.8-2.2,4C74.8,35.7,72.9,34.1,70.9,32.6
	"/>
<path class="st1" d="M26.6,33.6c1.1-2.1,2.2-4.2,3.4-6.2c1.2,1.9,2.6,3.7,4.2,5.2c-2,1.5-3.8,3.1-5.4,5C28,36.3,27.2,35,26.6,33.6"
	/>
<path class="st1" d="M21.4,54.9c-2.2-0.6-4.4-0.9-6.6-1c1.2-2,2.4-4.1,3.7-6.1c1.5-0.2,3-0.2,4.6-0.2C22.2,50,21.6,52.4,21.4,54.9"
	/>
<path class="st1" d="M44.3,92.8c-2.4,0.1-4.8,0.1-7.1,0.1c1.1-2,1.9-4.1,2.5-6.3c2.2,1,4.6,1.8,7.1,2.2
	C46.1,90.2,45.3,91.5,44.3,92.8"/>
<path class="st1" d="M83.8,54.9c-0.2-2.5-0.8-4.9-1.6-7.2c1.5-0.1,3,0,4.5,0.2c1.3,2,2.5,4,3.7,6.1C88.2,54,85.9,54.3,83.8,54.9"/>
<path class="st1" d="M65.4,86.6c0.6,2.2,1.4,4.3,2.5,6.3c-2.4,0-4.7,0-7.1-0.1c-0.9-1.3-1.7-2.6-2.4-3.9
	C60.8,88.4,63.2,87.7,65.4,86.6"/>
<path class="st2" d="M79.9,47.9c0.9,2.4,1.5,5,1.7,7.7c-5.5,2.1-10.4,6-13.6,11.4c-3.1,5.5-4,11.7-3,17.5c-2.4,1.1-4.9,1.9-7.6,2.4
	c-3.4-8-3.2-17.3,1.3-25.2C63.3,53.7,71.2,48.9,79.9,47.9"/>
<path class="st2" d="M47.8,86.8c-2.7-0.4-5.2-1.2-7.6-2.4c1-5.8,0-11.9-3.1-17.4c-3.2-5.5-8-9.4-13.6-11.4c0.2-2.7,0.8-5.3,1.7-7.7
	c8.7,1,16.7,5.8,21.2,13.7C51,69.5,51.2,78.8,47.8,86.8"/>
<path class="st2" d="M69.3,34.1c2.2,1.5,4.1,3.3,5.8,5.4C69.9,46.5,61.7,51,52.6,51s-17.3-4.5-22.5-11.5c1.7-2,3.6-3.8,5.8-5.4
	c4.6,3.8,10.4,6,16.7,6S64.7,37.9,69.3,34.1"/>
<path class="st3" d="M229.4,25.1c0-2.5,2-4.6,4.6-4.6c2.5,0,4.6,2,4.6,4.6c0,2.5-2,4.6-4.6,4.6S229.4,27.6,229.4,25.1"/>
<path class="st4" d="M131.5,50.4c0,9.5-1.5,19.6-9.6,19.6s-9.7-10.1-9.7-19.6c0-9.6,1.8-19.7,9.7-19.7S131.5,40.8,131.5,50.4
	 M141.1,50.7c0-14.5-5.4-26.3-19.2-26.3c-13.7,0-19.2,11.8-19.2,26.3S108.2,77,121.9,77C135.7,77,141.1,65.2,141.1,50.7z"/>
<path class="st3" d="M176.4,61.4c0-4.9-1.5-10.5-11.5-14.8c-4.5-1.9-7.7-3.9-7.7-8.4s2.7-7.4,7.3-7.4c3.3,0,6.1,1.2,7.9,2.3l2.1-5.8
	c-2.3-1.6-6.1-2.9-11.2-2.9c-9.4,0-15.3,6.9-15.3,15c0,5,2.2,10.5,10.5,14c5.7,2.4,7.9,4.8,7.9,8.6c0,4.7-3.1,7.9-8.2,7.9
	c-3.9,0-6.8-1.2-8.5-2.4l-2.3,6.6c2.7,1.8,6.5,2.9,12.6,2.9C169.6,77,176.4,70.4,176.4,61.4"/>
<path class="st3" d="M219.4,74.1V46.9h-16.3v5.8h7.3v16.8c-0.8,0.4-2.4,1-5.1,1c-7.1,0-12.3-6.7-12.3-19.6c0-13.7,5.2-19.7,14-19.7
	c4.4,0,7.2,1,8.8,1.9l2.8-5.8c-2.9-1.7-7-2.8-12.8-2.8c-13.2,0-22.5,9.7-22.5,26c0,17.1,8.6,26.6,22.3,26.6
	C212.5,77,216.2,75.9,219.4,74.1"/>
<rect x="229.4" y="36.2" class="st3" width="9.1" height="40"/>
<g>
	<path class="st3" d="M246.9,21.5c0-1,0.3-2,0.8-2.9s1.2-1.6,2.1-2.2c0.9-0.5,1.9-0.8,2.9-0.8s2,0.3,2.9,0.8
		c0.9,0.5,1.6,1.2,2.2,2.1c0.5,0.9,0.8,1.9,0.8,2.9s-0.3,2-0.8,2.9s-1.2,1.6-2.1,2.2c-0.9,0.5-1.9,0.8-3,0.8s-2.1-0.3-3-0.8
		s-1.6-1.3-2.1-2.2C247.2,23.5,246.9,22.5,246.9,21.5z M247.8,21.5c0,0.9,0.2,1.7,0.7,2.5s1.1,1.4,1.9,1.9c0.8,0.5,1.6,0.7,2.5,0.7
		s1.7-0.2,2.5-0.7c0.8-0.5,1.4-1.1,1.8-1.8c0.4-0.7,0.7-1.6,0.7-2.5s-0.2-1.7-0.7-2.5s-1.1-1.4-1.8-1.8c-0.8-0.5-1.6-0.7-2.5-0.7
		s-1.7,0.2-2.5,0.7s-1.4,1.1-1.8,1.8S247.8,20.6,247.8,21.5z M255.2,20.1c0,0.4-0.1,0.8-0.3,1.1s-0.5,0.6-0.9,0.7l1.9,3.1h-1.3
		l-1.6-2.8h-1.1V25h-1.2v-7h2c0.9,0,1.5,0.2,1.9,0.5C255,18.9,255.2,19.4,255.2,20.1z M251.8,21.2h0.8c0.4,0,0.8-0.1,1-0.3
		c0.3-0.2,0.4-0.5,0.4-0.8c0-0.4-0.1-0.7-0.3-0.8c-0.2-0.2-0.6-0.3-1.1-0.3h-0.8L251.8,21.2L251.8,21.2z"/>
</g>
</svg>
