<svg width="201" height="200" viewBox="0 0 201 200" fill="none" xmlns="http://www.w3.org/2000/svg">
<rect x="0.5" width="200" height="200" rx="5" fill="#E2E6EC"/>
<path fill-rule="evenodd" clip-rule="evenodd" d="M57.8335 74.0007C57.8335 69.2142 61.7137 65.334 66.5002 65.334H134.5C139.287 65.334 143.167 69.2142 143.167 74.0007V127.334C143.167 132.12 139.287 136.001 134.5 136.001H66.5002C61.7137 136.001 57.8335 132.12 57.8335 127.334V74.0007ZM66.5002 69.334C63.9228 69.334 61.8335 71.4233 61.8335 74.0007V127.334C61.8335 129.911 63.9228 132.001 66.5002 132.001H134.5C137.077 132.001 139.167 129.911 139.167 127.334V74.0007C139.167 71.4233 137.077 69.334 134.5 69.334H66.5002Z" fill="#B2B9C4"/>
<ellipse cx="77.8337" cy="84.0006" rx="8.66667" ry="8.66666" fill="#B2B9C4"/>
<path d="M69.167 122.335V116.025C69.167 115.583 69.3426 115.159 69.6551 114.846L82.0433 102.458C82.6723 101.829 83.6846 101.805 84.3429 102.404L89.3409 106.947C89.9925 107.54 90.9924 107.523 91.6238 106.909L113.322 85.8135C113.975 85.1783 115.018 85.1856 115.662 85.83L132.679 102.846C132.991 103.159 133.167 103.583 133.167 104.025V122.335C133.167 123.255 132.421 124.001 131.5 124.001H70.8337C69.9132 124.001 69.167 123.255 69.167 122.335Z" fill="#B2B9C4"/>
</svg>
