<svg width="100" height="100" viewBox="0 0 100 100" fill="none" xmlns="http://www.w3.org/2000/svg">
<circle cx="50" cy="50" r="50" fill="#2C2C2E"/>
<g clip-path="url(#clip0_542_14805)">
<mask id="mask0_542_14805" style="mask-type:luminance" maskUnits="userSpaceOnUse" x="-897" y="-896" width="1578" height="5362">
<path d="M-896.077 -895.077H680.077V4465.69H-896.077V-895.077Z" fill="white"/>
</mask>
<g mask="url(#mask0_542_14805)">
<path fill-rule="evenodd" clip-rule="evenodd" d="M53.6537 32.5C53.6537 34.9231 51.6921 36.8846 49.269 36.8846C46.846 36.8846 44.769 34.9231 44.769 32.5C44.769 29.9615 46.846 28 49.269 28C51.6921 28 53.6537 29.9615 53.6537 32.5ZM52.269 32.5C52.269 30.7692 50.8844 29.5 49.269 29.5C47.6537 29.5 46.269 30.7692 46.269 32.5C46.269 34.1154 47.6537 35.3846 49.269 35.3846C50.8844 35.3846 52.269 34.1154 52.269 32.5Z" fill="white"/>
<path fill-rule="evenodd" clip-rule="evenodd" d="M55.9618 41.3846V45.7692C55.9618 47.0385 54.9233 48.0769 53.6541 48.0769H44.7695C43.6156 48.0769 42.5771 47.0385 42.5771 45.7692V41.3846C42.5771 39.3077 44.1925 37.6923 46.2695 37.6923H46.5002H46.6156C48.231 38.5 50.1925 38.5 51.9233 37.6923H52.0387H52.2695C54.231 37.6923 55.9618 39.3077 55.9618 41.3846ZM54.4618 41.3846C54.4618 40.2308 53.5387 39.1923 52.3848 39.0769C50.4233 40 48.1156 40 46.1541 39.0769C45.0002 39.1923 44.0771 40.2308 44.0771 41.3846V45.7692C44.0771 46.2308 44.4233 46.5769 44.7695 46.5769H53.6541C54.1156 46.5769 54.4618 46.2308 54.4618 45.7692V41.3846Z" fill="white"/>
<path fill-rule="evenodd" clip-rule="evenodd" d="M69.2308 56.9615C69.2308 59.3846 67.2693 61.3462 64.8462 61.3462C62.4231 61.3462 60.3462 59.3846 60.3462 56.9615C60.3462 54.4231 62.4231 52.4615 64.8462 52.4615C67.2693 52.4615 69.2308 54.4231 69.2308 56.9615ZM67.8462 56.9615C67.8462 55.3462 66.4616 53.9615 64.8462 53.9615C63.2308 53.9615 61.8462 55.3462 61.8462 56.9615C61.8462 58.5769 63.2308 59.8462 64.8462 59.8462C66.4616 59.8462 67.8462 58.5769 67.8462 56.9615Z" fill="white"/>
<path fill-rule="evenodd" clip-rule="evenodd" d="M71.5384 65.8461V70.2307C71.5384 71.5 70.5 72.5384 69.2307 72.5384H60.3461C59.1923 72.5384 58.1538 71.5 58.1538 70.2307V65.8461C58.1538 63.7692 59.7692 62.1538 61.8461 62.1538H62.0769H62.1923C63.8077 63.0769 65.7692 63.0769 67.5 62.1538H67.6153H67.8461C69.8077 62.1538 71.5384 63.7692 71.5384 65.8461ZM70.0384 65.8461C70.0384 64.6923 69.1153 63.6538 67.9615 63.6538C66 64.5769 63.6923 64.5769 61.7307 63.6538C60.5769 63.6538 59.6538 64.6923 59.6538 65.8461V70.2307C59.6538 70.6923 60 71.0384 60.3461 71.0384H69.2307C69.6923 71.0384 70.0384 70.6923 70.0384 70.2307V65.8461Z" fill="white"/>
<path fill-rule="evenodd" clip-rule="evenodd" d="M38.077 56.9615C38.077 59.3846 36.1155 61.3462 33.6924 61.3462C31.2693 61.3462 29.1924 59.3846 29.1924 56.9615C29.1924 54.4231 31.2693 52.4615 33.6924 52.4615C36.1155 52.4615 38.077 54.4231 38.077 56.9615ZM36.6924 56.9615C36.6924 55.3462 35.3078 53.9615 33.6924 53.9615C32.077 53.9615 30.6924 55.3462 30.6924 56.9615C30.6924 58.5769 32.077 59.8462 33.6924 59.8462C35.3078 59.8462 36.6924 58.5769 36.6924 56.9615Z" fill="white"/>
<path fill-rule="evenodd" clip-rule="evenodd" d="M40.3846 65.8461V70.2307C40.3846 71.5 39.3462 72.5384 38.0769 72.5384H29.1923C28.0385 72.5384 27 71.5 27 70.2307V65.8461C27 63.7692 28.6154 62.1538 30.6923 62.1538H30.9231H31.0385C32.6538 63.0769 34.6154 63.0769 36.3462 62.1538H36.4615H36.6923C38.6538 62.1538 40.3846 63.7692 40.3846 65.8461ZM38.8846 65.8461C38.8846 64.6923 37.9615 63.6538 36.8077 63.6538C34.8462 64.5769 32.5385 64.5769 30.5769 63.6538C29.4231 63.6538 28.5 64.6923 28.5 65.8461V70.2307C28.5 70.6923 28.8462 71.0384 29.1923 71.0384H38.0769C38.5385 71.0384 38.8846 70.6923 38.8846 70.2307V65.8461Z" fill="white"/>
<path d="M56.654 65.7308C56.654 65.7308 56.654 65.6923 56.654 65.6154C56.4232 65.2693 55.9617 65.1539 55.6155 65.2693C52.2694 66.6539 48.5771 66.8846 45.1155 65.9616L45.8078 65.8462C46.154 65.7308 46.3848 65.2693 46.2694 64.9231C46.154 64.4616 45.6925 64.2308 45.3463 64.3462L42.3463 65.2693C42.2694 65.2693 42.1925 65.3077 42.1155 65.3846C42.0386 65.4616 41.9617 65.5385 41.8848 65.6154C41.8848 65.7693 41.8848 65.8846 41.8848 65.9616C41.8848 66.0385 41.8848 66.1539 41.8848 66.3077L43.3848 69.1923C43.6155 69.5385 44.0771 69.6539 44.4232 69.4231C44.7694 69.3077 44.8848 68.8462 44.7694 68.5L44.0771 67.3462C48.1155 68.5 52.3848 68.2693 56.1925 66.6539C56.654 66.5385 56.7694 66.0769 56.654 65.7308Z" fill="white"/>
<path d="M69.1153 47.5C68.7692 47.2693 68.3076 47.2693 68.0769 47.5L66.923 48.5385C66.3461 42.0769 62.1922 36.4231 56.1922 33.8846C55.8461 33.6539 55.3845 33.8846 55.2692 34.2308C55.0384 34.6923 55.2692 35.0385 55.6153 35.2693C61.0384 37.5769 64.7307 42.5385 65.423 48.3077L64.6153 47.5C64.2692 47.2693 63.8076 47.2693 63.5769 47.5C63.3461 47.8462 63.3461 48.3077 63.5769 48.5385L65.7692 50.7308C66.1153 51.0769 66.5769 51.0769 66.8076 50.7308L69.1153 48.5385C69.3461 48.3077 69.3461 47.8462 69.1153 47.5Z" fill="white"/>
<path d="M43.2692 34.4615C43.2692 34.3846 43.2692 34.3461 43.2692 34.3461C43.2692 34.2692 43.2692 34.2308 43.2692 34.2308C43.2692 34.2308 43.2308 34.1923 43.1538 34.1154C43.1538 34.1154 43.1538 34.0769 43.1538 34C43.0769 34 43 33.9615 42.9231 33.8846L39.9231 32.5C39.5769 32.3846 39.1154 32.5 39 32.9615C38.7692 33.3077 39 33.6538 39.3462 33.8846L40.8462 34.5769C35.0769 37.6923 31.5 43.6923 31.5 50.2692C31.5 50.6154 31.7308 50.9615 32.1923 50.9615C32.6538 50.9615 32.8846 50.6154 32.8846 50.2692C32.8846 44.5 36 39.0769 40.9615 36.1923L40.3846 37.3461C40.2692 37.6923 40.3846 38.1538 40.7308 38.2692C40.8846 38.3461 41 38.3846 41.0769 38.3846C41.4231 38.3846 41.6538 38.2692 41.7692 37.9231L43.2692 34.9231C43.2692 34.8461 43.2692 34.8077 43.2692 34.8077C43.2692 34.8077 43.2692 34.7692 43.2692 34.6923C43.2692 34.6154 43.2692 34.5769 43.2692 34.5769C43.2692 34.5 43.2692 34.4615 43.2692 34.4615Z" fill="white"/>
</g>
</g>
<defs>
<clipPath id="clip0_542_14805">
<rect width="45" height="45" fill="white" transform="translate(27 28)"/>
</clipPath>
</defs>
</svg>
