<svg width="22" height="21" viewBox="0 0 22 21" fill="none" xmlns="http://www.w3.org/2000/svg">
<path d="M15.2612 15.1813C14.526 15.9164 13.6533 16.4996 12.6928 16.8974C11.7323 17.2953 10.7029 17.5 9.66325 17.5C7.56362 17.5 5.54998 16.6659 4.06532 15.1813C2.58066 13.6966 1.74658 11.683 1.74658 9.58335C1.74658 7.48372 2.58066 5.47009 4.06532 3.98543C5.54998 2.50076 7.56362 1.66669 9.66325 1.66669C10.7029 1.66669 11.7323 1.87146 12.6928 2.26931C13.6533 2.66716 14.526 3.25029 15.2612 3.98543C15.9963 4.72056 16.5794 5.59328 16.9773 6.55378C17.3751 7.51427 17.5799 8.54372 17.5799 9.58335C17.5799 10.623 17.3751 11.6524 16.9773 12.6129C16.5794 13.5734 15.9963 14.4462 15.2612 15.1813ZM15.2612 15.1813L20.0799 20" stroke="#2C2C2E" stroke-width="2" stroke-linecap="round" stroke-linejoin="round"/>
</svg>
