<svg width="75" height="75" viewBox="0 0 75 75" fill="none" xmlns="http://www.w3.org/2000/svg">
<g clip-path="url(#clip0_614_12066)">
<mask id="mask0_614_12066" style="mask-type:luminance" maskUnits="userSpaceOnUse" x="-228" y="-1963" width="1366" height="4646">
<path d="M-228 -1963H1138V2683H-228V-1963Z" fill="white"/>
</mask>
<g mask="url(#mask0_614_12066)">
<path fill-rule="evenodd" clip-rule="evenodd" d="M49.7 47.2001V52.2001C49.7 54.2001 48 55.9001 46 55.9001H44.6C44.1 55.9001 43.6 56.2001 43.4 56.7001C43.2667 57.1001 43.1 57.5 42.9 57.9001C42.7 58.3001 42.8 58.9 43.2 59.3L44.2 60.2001C45.6 61.7001 45.6 64 44.2 65.5L40.7 69C39.2 70.5 36.8 70.5 35.4 69L34.4 68C34 67.7001 33.5 67.6001 33 67.8001C32.6 68.0001 32.2333 68.1667 31.9 68.3001C31.4 68.5001 31.1 68.9001 31.1 69.4001V70.8001C31.1 72.9001 29.4 74.5 27.3 74.5H22.4C20.3 74.5 18.6 72.9001 18.6 70.8001V69.4001C18.6 68.9001 18.3 68.5001 17.8 68.3001C17.4 68.1001 17 67.9334 16.6 67.8001C16.2 67.6001 15.6 67.7001 15.3 68L14.3 69C12.8 70.5 10.5 70.5 9 69L5.5 65.5C4.1 64 4.1 61.7001 5.5 60.2001L6.5 59.3C6.9 58.9 6.9 58.3001 6.7 57.9001C6.56667 57.5 6.4 57.1001 6.2 56.7001C6.1 56.2001 5.6 55.9001 5.1 55.9001H3.7C1.7 55.9001 0 54.2001 0 52.2001V47.2001C0 45.1 1.7 43.5 3.7 43.5H5.1C5.6 43.5 6.1 43.2001 6.3 42.7001C6.43333 42.3001 6.56667 41.9 6.7 41.5C7 41 6.9 40.5 6.5 40.1L5.5 39.1C4.1 37.7 4.1 35.3001 5.5 33.9001L9 30.4C10.5 28.9 12.8 28.9 14.3 30.4L15.3 31.3C15.6 31.7 16.2 31.8 16.7 31.6C17.0333 31.4001 17.4 31.2334 17.8 31.1C18.3 30.9001 18.6 30.4 18.6 29.9V28.6C18.6 26.5001 20.3 24.8 22.4 24.8H27.3C29.4 24.8 31.1 26.5001 31.1 28.6V29.9C31.1 30.5 31.4 30.9001 31.9 31.1C32.3 31.2334 32.6667 31.4001 33 31.6C33.5 31.8 34.1 31.7 34.4 31.3L35.4 30.4C36.8 28.9 39.2 28.9 40.7 30.4L44.2 33.9001C45.6 35.3001 45.6 37.7 44.2 39.1L43.2 40.1C42.8 40.5 42.7 41 43 41.5C43.1333 41.9 43.2667 42.3001 43.4 42.7001C43.6 43.2001 44.1 43.5 44.6 43.5H46C48 43.5 49.7 45.1 49.7 47.2001ZM47.2 47.2001C47.2 46.5 46.6 46 46 46H44.6C43 46 41.7 45 41.1 43.6C40.9667 43.2 40.8333 42.8334 40.7 42.5C40 41.1 40.3 39.5001 41.4 38.4001L42.4 37.4001C42.9 36.9001 42.9 36.1 42.4 35.6L38.9 32.1C38.4 31.6 37.6 31.6 37.1 32.1L36.2 33.1C35.1 34.2 33.4 34.5 32 33.8C31.6667 33.6667 31.3333 33.5334 31 33.4001C29.5 32.9001 28.6 31.5 28.6 29.9V28.6C28.6 27.9 28 27.3 27.3 27.3H22.4C21.7 27.3 21.1 27.9 21.1 28.6V29.9C21.1 31.5 20.2 32.9001 18.7 33.4001C18.3667 33.5334 18.0333 33.6667 17.7 33.8C16.3 34.5 14.6 34.2 13.5 33.1L12.5 32.1C12.1 31.6 11.3 31.6 10.8 32.1L7.3 35.6C6.8 36.1 6.8 36.9001 7.3 37.4001L8.3 38.4001C9.3 39.5001 9.6 41.1 9 42.5C8.86667 42.8334 8.73333 43.2 8.6 43.6C8 45 6.6 46 5.1 46H3.7C3 46 2.5 46.5 2.5 47.2001V52.2001C2.5 52.9001 3 53.4001 3.7 53.4001H5.1C6.6 53.4001 8 54.4 8.6 55.8C8.73333 56.1334 8.86667 56.4667 9 56.8C9.6 58.2001 9.3 59.9001 8.2 61L7.3 62C6.8 62.5 6.8 63.3 7.3 63.7001L10.8 67.2C11.3 67.7 12.1 67.7 12.5 67.2L13.5 66.3001C14.6 65.2001 16.3 64.9001 17.7 65.5C18.0333 65.7001 18.3667 65.8667 18.7 66C20.2 66.5 21.1 67.9001 21.1 69.4001V70.8001C21.1 71.5001 21.7 72 22.4 72H27.3C28 72 28.6 71.5001 28.6 70.8001V69.4001C28.6 67.9001 29.5 66.5 31 66C31.3333 65.8667 31.6667 65.7001 32 65.5C33.4 64.9001 35.1 65.2001 36.2 66.3001L37.1 67.2C37.6 67.7 38.4 67.7 38.9 67.2L42.4 63.7001C42.9 63.3 42.9 62.5 42.4 62L41.4 61C40.3 59.9001 40 58.2001 40.7 56.8C40.8333 56.4667 40.9667 56.1334 41.1 55.8C41.7 54.4 43 53.4001 44.6 53.4001H46C46.6 53.4001 47.2 52.9001 47.2 52.2001V47.2001Z" fill="white"/>
<path fill-rule="evenodd" clip-rule="evenodd" d="M36 49.7C36 49.7667 36 49.8333 36 49.9C36 50.1 36 50.3333 36 50.6C35.9334 50.8 35.9 51.0333 35.9 51.3C35.6 53.1 35 54.8 34 56.4C33.8 56.7333 33.6 57 33.4 57.2C32.4 58.1333 31.3334 58.9 30.2 59.5C30 59.6333 29.7667 59.7333 29.5 59.8C29.3667 59.8667 29.2334 59.9333 29.1 60C28.9 60.0667 28.7 60.1333 28.5 60.2C28.3667 60.2667 28.2 60.3333 28 60.4C27.8 60.4667 27.6 60.5333 27.4 60.6C27.2667 60.6 27.1334 60.6333 27 60.7C26.6667 60.7 26.3667 60.7333 26.1 60.8C26.0334 60.8 26 60.8 26 60.8C25.6 60.8667 25.2334 60.9 24.9 60.9C24.7 60.9 24.5 60.8667 24.3 60.8C24.0334 60.8 23.7334 60.8 23.4 60.8C23 60.7333 22.5667 60.6333 22.1 60.5C18.1 59.5 15 56.4 14 52.5C12.5 46.5 16.1 40.4 22 38.9C22.4 38.7667 22.8 38.6667 23.2 38.6C23.4 38.6 23.5667 38.6 23.7 38.6C23.9667 38.5333 24.2334 38.5 24.5 38.5C24.6334 38.5 24.7334 38.5 24.8 38.5C27.2 38.5 29.6 39.3 31.5 40.7L31.7 40.9C31.8334 41.0333 32 41.1667 32.2 41.3C32.3334 41.3667 32.4334 41.4667 32.5 41.6C32.6334 41.6667 32.7334 41.7667 32.8 41.9C33 42.1 33.2 42.3 33.4 42.5C33.4 42.5 33.4334 42.5333 33.5 42.6C33.9 43.1333 34.2667 43.6667 34.6 44.2C34.6 44.2667 34.6 44.3 34.6 44.3C34.8667 44.7 35.0667 45.1 35.2 45.5C35.2667 45.6333 35.3334 45.8 35.4 46C35.4667 46.2667 35.5334 46.5 35.6 46.7C35.6667 46.9667 35.7334 47.2 35.8 47.4C35.8667 47.6667 35.9 47.9667 35.9 48.3C35.9667 48.5667 36 48.8667 36 49.2C36 49.3333 36 49.5 36 49.7ZM33.5 49.1C33.5 49.0333 33.5 48.9667 33.5 48.9C33.4334 48.5667 33.3667 48.2 33.3 47.8C33.3 47.7333 33.2667 47.6333 33.2 47.5C33.2 47.2333 33.1334 47 33 46.8C33 46.6667 32.9667 46.5333 32.9 46.4C32.7667 46.1333 32.6334 45.8333 32.5 45.5C32.4334 45.4333 32.3667 45.3333 32.3 45.2C32.1667 45 32.0334 44.8333 31.9 44.7C31.8334 44.5667 31.7667 44.4333 31.7 44.3C31.5667 44.1 31.4 43.9333 31.2 43.8C31.1334 43.7333 31.0667 43.6333 31 43.5C30.8 43.3 30.5667 43.1 30.3 42.9C30.1667 42.8333 30.0667 42.7667 30 42.7C29.8 42.5667 29.6 42.4333 29.4 42.3C29.3334 42.2333 29.2334 42.1667 29.1 42.1C28.5 41.7667 27.8667 41.5 27.2 41.3C27.1334 41.3 27.0667 41.3 27 41.3C26.7334 41.2333 26.4667 41.1667 26.2 41.1C26.0667 41.1 25.9667 41.1 25.9 41.1C25.5667 41.0333 25.2 41 24.8 41C24.0667 41 23.3667 41.1 22.7 41.3C19.6 42.1 17.2 44.5 16.4 47.5C15.2 52.2 18 56.9 22.7 58.1C23.0334 58.1667 23.3667 58.2333 23.7 58.3H23.8C24.1334 58.3667 24.4334 58.4 24.7 58.4C24.7667 58.4 24.8667 58.4 25 58.4C25.2 58.4 25.4 58.3667 25.6 58.3C25.7334 58.3 25.8667 58.3 26 58.3C26.0667 58.3 26.1334 58.3 26.2 58.3C27 58.1667 27.7667 57.9333 28.5 57.6L28.6 57.5C28.7334 57.4333 28.8667 57.3667 29 57.3C31.3 56 32.9 53.8 33.4 51.2C33.4667 50.9333 33.5 50.6333 33.5 50.3C33.5 50.2333 33.5 50.1333 33.5 50C33.5 49.7333 33.5 49.4333 33.5 49.1Z" fill="white"/>
<path d="M70.7998 26.1H66.8998C66.3998 26.1 65.8998 25.8 65.6998 25.3C65.3665 24.1 64.8998 22.9667 64.2998 21.9C64.0998 21.4 64.1998 20.9 64.5998 20.5L67.2998 17.7C68.7998 16.3 68.7998 13.9 67.2998 12.5L62.0998 7.2C60.5998 5.7 58.2998 5.7 56.7998 7.2L53.9998 10C53.6998 10.3 53.0998 10.4 52.5998 10.2C51.5331 9.66667 50.4331 9.2 49.2998 8.8C48.7998 8.6 48.3998 8.2 48.3998 7.6V3.7C48.3998 1.7 46.7998 0 44.6998 0H37.2998C35.1998 0 33.4998 1.7 33.4998 3.7V7.6C33.4998 8.2 33.1998 8.6 32.6998 8.8C31.5665 9.2 30.4665 9.66667 29.3998 10.2C28.8998 10.4 28.2998 10.3 27.9998 10L25.1998 7.2C23.6998 5.7 21.3998 5.7 19.8998 7.2L14.5998 12.5C13.1998 13.9 13.1998 16.3 14.5998 17.7L18.6998 21.8C19.1998 22.3 19.9998 22.3 20.4998 21.8C20.8998 21.3 20.8998 20.5 20.4998 20L16.3998 16C15.8998 15.5 15.8998 14.7 16.3998 14.2L21.6998 8.9C22.1998 8.5 22.8998 8.5 23.3998 8.9L26.1998 11.7C27.2998 12.8 28.9998 13.1 30.4998 12.4C31.4331 11.9333 32.4331 11.5 33.4998 11.1C34.9998 10.6 35.9998 9.2 35.9998 7.6V3.7C35.9998 3 36.5998 2.5 37.2998 2.5H44.6998C45.3998 2.5 45.9998 3 45.9998 3.7V7.6C45.9998 9.2 46.9998 10.6 48.4998 11.1C49.4998 11.5 50.4998 11.9333 51.4998 12.4C52.8998 13.1 54.6998 12.8 55.7998 11.7L58.5998 8.9C58.9998 8.5 59.7998 8.5 60.2998 8.9L65.5998 14.2C66.0998 14.7 66.0998 15.5 65.5998 16L62.7998 18.7C61.6998 19.9 61.3998 21.6 62.0998 23C62.6331 24 63.0665 25.0333 63.3998 26.1C63.8998 27.6 65.2998 28.6 66.8998 28.6H70.7998C71.4998 28.6 71.9998 29.1 71.9998 29.8V37.3C71.9998 37.9 71.4998 38.5 70.7998 38.5H66.8998C65.2998 38.5 63.8998 39.5 63.3998 41C63.0665 42.0667 62.6331 43.1 62.0998 44.1C61.3998 45.5 61.6998 47.2 62.7998 48.3L65.5998 51.1C66.0998 51.6 66.0998 52.4 65.5998 52.9L60.2998 58.1C59.7998 58.6 58.9998 58.6 58.5998 58.1L54.4998 54.1C53.9998 53.6 53.1998 53.6 52.6998 54C52.1998 54.5 52.1998 55.3 52.6998 55.8L56.7998 59.9C58.2998 61.3 60.5998 61.3 62.0998 59.9L67.2998 54.6C68.7998 53.2 68.7998 50.8 67.2998 49.3L64.5998 46.6C64.1998 46.2 64.0998 45.6 64.2998 45.2C64.8998 44.0667 65.3665 42.9333 65.6998 41.8C65.8998 41.3 66.3998 41 66.8998 41H70.7998C72.8998 41 74.4998 39.3 74.4998 37.3V29.8C74.4998 27.8 72.8998 26.1 70.7998 26.1Z" fill="white"/>
<path d="M52.4001 22.1C46.1001 15.8 35.9001 15.8 29.6001 22.1C29.1001 22.6 29.1001 23.4 29.6001 23.9C30.1001 24.3 30.8001 24.3 31.3001 23.9C36.6001 18.5 45.3001 18.4 50.6001 23.7C56.0001 29 56.1001 37.7 50.8001 43.1C50.7334 43.1 50.6668 43.1333 50.6001 43.2C50.2001 43.7 50.1001 44.5 50.6001 45C51.1001 45.4 51.9001 45.5 52.4001 45C58.7001 38.6 58.7001 28.4 52.4001 22.1Z" fill="white"/>
</g>
</g>
<defs>
<clipPath id="clip0_614_12066">
<rect width="75" height="75" fill="white"/>
</clipPath>
</defs>
</svg>
