<svg width="56" height="56" viewBox="0 0 56 56" fill="none" xmlns="http://www.w3.org/2000/svg">
<ellipse cx="27.665" cy="28.0903" rx="27.665" ry="27.6645" fill="white"/>
<g clip-path="url(#clip0_1087_5212)">
<path d="M39.0472 31.3147V29.6777H31.501C31.501 31.7958 29.7839 33.5129 27.6657 33.5129C25.5475 33.5129 23.8304 31.7959 23.8304 29.6777H16.2842V31.3147L19.561 31.6616C19.7654 32.4995 20.0964 33.2878 20.5325 34.0051L18.4602 36.5681L20.7753 38.8831L23.3383 36.8109C24.0556 37.2469 24.8439 37.5779 25.6818 37.7823L26.0287 41.0591H29.3027L29.6496 37.7823C30.4875 37.5779 31.2758 37.2469 31.9931 36.8109L34.5561 38.8831L36.8712 36.5681L34.7989 34.0051C35.235 33.2878 35.566 32.4995 35.7704 31.6616L39.0472 31.3147Z" fill="#034833"/>
<path d="M27.6666 15.1226C26.0456 15.1226 24.7269 16.4413 24.7269 18.0622C24.7269 19.6832 26.0456 21.0019 27.6666 21.0019C29.2875 21.0019 30.6063 19.6832 30.6063 18.0622C30.6063 16.4413 29.2875 15.1226 27.6666 15.1226Z" fill="#034833"/>
<path d="M30.7972 21.8159H24.5374C23.0963 21.816 21.9239 22.9883 21.9239 24.4294V28.1584H33.4108V24.4294C33.4108 22.9883 32.2383 21.8159 30.7972 21.8159Z" fill="#034833"/>
<path d="M21.4302 16.48C19.9781 16.48 18.7968 17.6614 18.7968 19.1134C18.7968 20.5538 19.9594 21.7271 21.3954 21.7459C21.9901 21.0503 22.8107 20.5538 23.743 20.3717C23.9473 19.9976 24.0637 19.5689 24.0637 19.1134C24.0637 17.6613 22.8823 16.48 21.4302 16.48Z" fill="#034833"/>
<path d="M18.6255 22.4775C17.3345 22.4775 16.2842 23.5278 16.2842 24.8188V28.1592H20.4026V24.4302C20.4026 23.7244 20.5808 23.0594 20.8941 22.4775H18.6255Z" fill="#034833"/>
<path d="M33.9017 16.48C32.4496 16.48 31.2682 17.6614 31.2682 19.1134C31.2682 19.5688 31.3846 19.9976 31.5889 20.3717C32.5212 20.5538 33.3418 21.0503 33.9365 21.7459C35.3726 21.7272 36.5352 20.5538 36.5352 19.1134C36.5352 17.6613 35.3538 16.48 33.9017 16.48Z" fill="#034833"/>
<path d="M36.7046 22.4775H34.436C34.7493 23.0594 34.9275 23.7244 34.9275 24.4302V28.1592H39.0459V24.8187C39.0459 23.5278 37.9956 22.4775 36.7046 22.4775Z" fill="#034833"/>
</g>
<defs>
<clipPath id="clip0_1087_5212">
<rect width="25.9359" height="25.9355" fill="white" transform="translate(14.697 15.1226)"/>
</clipPath>
</defs>
</svg>
