<svg width="51" height="58" viewBox="0 0 51 58" fill="none" xmlns="http://www.w3.org/2000/svg">
<path d="M39.7857 36.4975C37.2625 36.4975 34.9434 37.3701 33.1127 38.8295L21.6746 31.6806C22.0133 30.1484 22.0133 28.5607 21.6746 27.0285L33.1127 19.8796C34.9434 21.3391 37.2625 22.2118 39.7857 22.2118C45.703 22.2118 50.5 17.4148 50.5 11.4975C50.5 5.58019 45.703 0.783203 39.7857 0.783203C33.8684 0.783203 29.0714 5.58019 29.0714 11.4975C29.0714 12.2964 29.1596 13.0745 29.3254 13.8235L17.8873 20.9724C16.0566 19.513 13.7375 18.6403 11.2143 18.6403C5.29699 18.6403 0.5 23.4373 0.5 29.3546C0.5 35.2719 5.29699 40.0689 11.2143 40.0689C13.7375 40.0689 16.0566 39.1963 17.8873 37.7369L29.3254 44.8858C29.1564 45.6496 29.0712 46.4295 29.0714 47.2118C29.0714 53.1291 33.8684 57.9261 39.7857 57.9261C45.703 57.9261 50.5 53.1291 50.5 47.2118C50.5 41.2945 45.703 36.4975 39.7857 36.4975Z" fill="url(#paint0_linear_147_3059)"/>
<defs>
<linearGradient id="paint0_linear_147_3059" x1="25.5" y1="0.783203" x2="25.5" y2="57.9261" gradientUnits="userSpaceOnUse">
<stop stop-color="#54FFD4"/>
<stop offset="1" stop-color="#2C1CD8"/>
</linearGradient>
</defs>
</svg>
