<svg width="226" height="42" viewBox="0 0 226 42" fill="none" xmlns="http://www.w3.org/2000/svg">
<g clip-path="url(#clip0_614_11388)">
<mask id="mask0_614_11388" style="mask-type:luminance" maskUnits="userSpaceOnUse" x="-517" y="-2957" width="1576" height="5421">
<path d="M-516.571 -2956.33H1058.51V2464H-516.571V-2956.33Z" fill="white"/>
</mask>
<g mask="url(#mask0_614_11388)">
<path fill-rule="evenodd" clip-rule="evenodd" d="M72.9888 25.0833C72.9888 25.55 72.7967 25.9778 72.4123 26.3667C72.0664 26.6 71.7205 26.8333 71.1439 26.8333C70.798 26.8333 70.4521 26.8333 70.2215 26.6C69.9909 26.3666 69.7603 26.0944 69.5297 25.7833L68.6072 23.5667H61.5735L60.6511 25.7833C60.5358 26.1333 60.3052 26.3666 59.9592 26.6C59.7286 26.8333 59.3827 26.8333 59.0368 26.8333C58.5756 26.8333 58.1143 26.6 57.7684 26.3667C57.3841 25.9778 57.1919 25.55 57.1919 25.0833C57.1919 24.85 57.2688 24.6166 57.4225 24.3833L63.0725 12.4833C63.3031 12.1333 63.5337 11.9 63.8797 11.6667C64.3409 11.4333 64.6868 11.3167 65.148 11.3167C65.6092 11.3167 65.9936 11.4333 66.3011 11.6667C66.7623 11.7833 66.9929 12.1333 67.1082 12.4833L72.8735 24.3833C72.9504 24.6166 72.9888 24.85 72.9888 25.0833ZM63.0725 20.65H67.3388L65.2633 15.8667L63.0725 20.65Z" fill="#E72867"/>
<path fill-rule="evenodd" clip-rule="evenodd" d="M81.6365 26.3667C81.329 25.9778 81.1753 25.5111 81.1753 24.9667V13.3C81.1753 12.7556 81.329 12.2889 81.6365 11.9C81.944 11.5889 82.4052 11.4333 83.0202 11.4333H87.4018C89.093 11.5111 90.5151 11.8222 91.6681 12.3667C92.9365 12.95 93.859 13.8833 94.4355 15.05C95.1273 16.2167 95.4733 17.5778 95.4733 19.1333C95.4733 20.7667 95.1273 22.1278 94.4355 23.2167C93.859 24.3833 92.9365 25.3167 91.7835 25.9C90.5151 26.4833 89.1314 26.8333 87.4018 26.8333H83.0202C82.3284 26.8333 81.9824 26.6 81.6365 26.3667ZM90.3998 22.5167C91.0916 21.8167 91.4375 20.6889 91.4375 19.1333C91.4375 17.5778 91.0916 16.45 90.3998 15.75C89.6311 15.05 88.5164 14.7 87.0559 14.7H85.0957V23.5667H87.0559C88.4396 23.5667 89.5926 23.2167 90.3998 22.5167Z" fill="#E72867"/>
<path fill-rule="evenodd" clip-rule="evenodd" d="M106.774 26.0166C105.621 25.4333 104.698 24.5 104.122 23.3333C103.507 22.0889 103.199 20.6889 103.199 19.1333C103.199 17.5778 103.507 16.1778 104.122 14.9333C104.698 13.7667 105.621 12.8333 106.774 12.25C107.811 11.6667 109.195 11.3167 110.809 11.3167C112.308 11.3167 113.692 11.6667 114.845 12.25C115.998 12.95 116.805 13.7667 117.497 14.9333C118.035 16.1778 118.304 17.5778 118.304 19.1333C118.304 20.6889 118.035 22.0889 117.497 23.3333C116.805 24.5 115.998 25.4333 114.845 26.0166C113.692 26.7166 112.308 27.0667 110.809 27.0667C109.195 26.95 107.927 26.6 106.774 26.0166ZM113.461 22.75C114.153 21.8944 114.499 20.6889 114.499 19.1333C114.499 17.5778 114.153 16.3722 113.461 15.5167C112.77 14.7389 111.886 14.35 110.809 14.35C109.656 14.35 108.734 14.8167 108.157 15.5167C107.466 16.3722 107.12 17.5778 107.12 19.1333C107.12 20.6889 107.466 21.8944 108.157 22.75C108.772 23.5278 109.656 23.9166 110.809 23.9166C111.962 23.9166 112.77 23.5667 113.461 22.75Z" fill="#E72867"/>
<path fill-rule="evenodd" clip-rule="evenodd" d="M127.644 26.3667C127.298 26.0167 127.183 25.55 127.183 24.9667V13.3C127.183 12.7556 127.336 12.2889 127.644 11.9C127.951 11.5889 128.413 11.4333 129.028 11.4333H134.447C136.138 11.5111 137.445 11.9778 138.367 12.8333C139.29 13.6889 139.751 14.8945 139.751 16.45C139.751 17.9278 139.251 19.0945 138.252 19.95C137.406 20.8833 136.138 21.35 134.447 21.35H130.988V24.9667C130.988 25.55 130.757 26.1333 130.526 26.4833C130.181 26.8334 129.604 26.95 129.028 26.95C128.566 26.95 127.99 26.8333 127.644 26.3667ZM135.6 17.85C135.907 17.4611 136.061 16.9945 136.061 16.45C136.061 15.2056 135.369 14.5445 133.986 14.4667H131.103V18.3167H133.986C134.678 18.3167 135.254 18.0833 135.6 17.85Z" fill="#E72867"/>
<path d="M152.435 26.3667C152.089 26.0167 151.973 25.55 151.973 24.9667V14.7H148.975C148.284 14.7 147.784 14.5833 147.476 14.35C147.13 14 147.015 13.65 147.015 13.0667C147.015 12.5222 147.169 12.1333 147.476 11.9C147.784 11.5889 148.284 11.4333 148.975 11.4333H159.007C159.622 11.4333 160.083 11.5889 160.391 11.9C160.698 12.1333 160.852 12.5222 160.852 13.0667C160.852 13.5333 160.737 14 160.391 14.35C160.083 14.5833 159.622 14.7 159.007 14.7H156.009V24.9667C156.009 25.55 155.778 26.0167 155.432 26.3667C155.087 26.7167 154.625 26.95 154.049 26.95C153.357 26.95 152.896 26.7167 152.435 26.3667Z" fill="#E72867"/>
<path d="M169.731 26.3667C169.385 26.0167 169.154 25.55 169.154 24.9667V13.3C169.154 12.7167 169.385 12.25 169.731 11.9C169.961 11.55 170.538 11.3167 171.114 11.3167C171.691 11.3167 172.268 11.55 172.498 11.9C172.844 12.25 173.075 12.7167 173.075 13.3V24.9667C173.075 25.55 172.844 26.0167 172.498 26.3667C172.268 26.7167 171.691 26.95 171.114 26.95C170.538 26.95 170.077 26.8333 169.731 26.3667Z" fill="#E72867"/>
<path d="M184.144 25.3167C183.067 24.2278 182.491 22.5944 182.414 20.4167V13.3C182.414 12.7167 182.645 12.25 182.991 11.9C183.337 11.55 183.798 11.3167 184.374 11.3167C184.951 11.3167 185.412 11.55 185.873 11.9C186.219 12.25 186.334 12.7167 186.334 13.3V20.5333C186.334 21.6222 186.604 22.4778 187.142 23.1C187.488 23.6833 188.295 24.0333 189.217 24.0333C190.14 24.0333 190.831 23.6833 191.293 23.1C191.754 22.4778 191.984 21.6222 191.984 20.5333V13.3C191.984 12.7167 192.215 12.25 192.446 11.9C192.792 11.55 193.368 11.3167 193.945 11.3167C194.521 11.3167 194.982 11.55 195.328 11.9C195.674 12.25 195.905 12.7167 195.905 13.3V20.3C195.905 22.4778 195.328 24.15 194.175 25.3167C192.907 26.3667 191.293 26.95 189.102 26.95C186.911 26.95 185.297 26.4833 184.144 25.3167Z" fill="#E72867"/>
<path d="M219.889 11.9001C220.235 12.2501 220.466 12.8334 220.466 13.3001V25.0834C220.466 25.6668 220.235 26.1334 220.004 26.4834C219.658 26.8334 219.197 26.9501 218.736 26.9501C218.159 26.9501 217.813 26.8334 217.468 26.4834C217.122 26.1334 217.006 25.7834 217.006 25.0834V18.7834L214.585 23.3334C214.277 23.8001 214.008 24.1112 213.778 24.2668C213.47 24.5001 213.124 24.5779 212.74 24.5001C212.356 24.5779 212.048 24.5001 211.818 24.2668C211.51 24.1112 211.241 23.8001 211.01 23.3334L208.589 18.9001V25.0834C208.589 25.6668 208.474 26.1334 208.128 26.4834C207.782 26.8334 207.436 26.9501 206.859 26.9501C206.398 26.9501 206.052 26.8334 205.706 26.4834C205.36 26.1334 205.245 25.7834 205.245 25.0834V13.3001C205.245 12.7556 205.399 12.289 205.706 11.9001C206.014 11.589 206.475 11.4334 207.09 11.4334C207.551 11.4334 207.782 11.5501 208.128 11.7834C208.435 11.939 208.704 12.2501 208.935 12.7168L212.855 20.3001L216.776 12.7168C217.237 11.9001 217.813 11.4334 218.621 11.4334C219.082 11.3168 219.543 11.5501 219.889 11.9001Z" fill="#E72867"/>
<path d="M26.1747 37.0999L19.141 21.7L13.8369 33.3666L29.1726 40.3666C27.789 39.6666 26.7512 38.4999 26.1747 37.0999Z" fill="url(#paint0_linear_614_11388)"/>
<path d="M37.7049 31.85L25.0212 3.96663C24.9059 3.84997 24.9059 3.7333 24.7906 3.7333V3.49997C24.7906 3.3833 24.6753 3.3833 24.6753 3.3833C25.1365 4.31663 25.4825 5.24997 25.4825 6.41663C25.4825 7.34997 25.2518 8.2833 24.9059 8.9833L19.1406 21.7L26.059 37.1C27.0967 39.3166 29.2876 40.95 31.9396 40.95C35.3988 40.95 38.1661 38.0333 38.1661 34.5333C38.2814 33.4833 38.0508 32.6666 37.7049 31.85Z" fill="url(#paint1_linear_614_11388)"/>
<path d="M19.1408 0C16.6041 0 14.5286 1.4 13.4908 3.5L13.3755 3.73333C13.3755 3.73333 13.3755 3.85 13.2602 3.96667L0.576531 31.85C0.192177 32.6278 0 33.5222 0 34.5333C0 38.0333 2.76735 40.95 6.34184 40.95C8.87857 40.95 11.1847 39.3167 12.1071 37.1L24.9061 9.1C25.252 8.28333 25.4827 7.35 25.4827 6.41667C25.4827 2.91667 22.6 0 19.1408 0Z" fill="url(#paint2_linear_614_11388)"/>
<path fill-rule="evenodd" clip-rule="evenodd" d="M222.656 10.3833C222.426 10.2667 222.195 10.15 221.964 9.91668C221.734 9.80002 221.618 9.45002 221.503 9.21668C221.349 8.98335 221.272 8.71113 221.272 8.40002C221.272 7.93335 221.503 7.58335 221.618 7.23335C221.849 6.92224 222.156 6.65002 222.541 6.41668C222.887 6.30002 223.233 6.18335 223.579 6.18335C224.04 6.18335 224.386 6.30002 224.732 6.41668C225.078 6.65002 225.308 6.88335 225.539 7.23335C225.769 7.58335 225.885 7.93335 225.885 8.40002C225.885 8.63335 225.769 8.98335 225.654 9.21668C225.539 9.45002 225.423 9.80002 225.193 9.91668C225.078 10.15 224.732 10.2667 224.501 10.3833C224.27 10.5 223.925 10.6167 223.694 10.6167C223.463 10.6167 223.002 10.5 222.656 10.3833ZM224.501 10.0333C224.732 9.91668 225.078 9.68335 225.193 9.33335C225.308 9.10002 225.423 8.75002 225.423 8.40002C225.423 8.16668 225.308 7.81668 225.193 7.46668C225.078 7.23335 224.732 7.11668 224.501 6.88335C224.27 6.65002 223.925 6.65002 223.579 6.65002C223.233 6.65002 223.002 6.65002 222.656 6.88335C222.426 7.00002 222.195 7.23335 222.08 7.46668C221.964 7.81668 221.734 8.16668 221.734 8.40002C221.734 8.75002 221.849 9.10002 222.08 9.33335C222.195 9.68335 222.426 9.80002 222.656 10.0333C223.002 10.15 223.233 10.2667 223.579 10.2667C223.925 10.2667 224.27 10.15 224.501 10.0333ZM222.771 9.68335C222.771 9.68335 222.771 9.56668 222.771 9.45002V7.46668C222.771 7.46668 222.771 7.42779 222.771 7.35002C222.848 7.27224 222.925 7.23335 223.002 7.23335H223.809C224.155 7.23335 224.386 7.35002 224.501 7.35002C224.655 7.42779 224.732 7.62224 224.732 7.93335C224.732 8.05002 224.732 8.16668 224.616 8.16668C224.616 8.28335 224.616 8.28335 224.501 8.40002C224.501 8.40002 224.386 8.40002 224.27 8.51668C224.27 8.51668 224.155 8.63335 224.04 8.63335L224.616 9.33335V9.45002C224.616 9.45002 224.616 9.45002 224.616 9.56668C224.501 9.68335 224.501 9.68335 224.501 9.68335C224.386 9.68335 224.27 9.68335 224.27 9.56668L223.694 8.63335H223.233V9.45002C223.233 9.56668 223.233 9.68335 223.117 9.68335C223.117 9.68335 223.117 9.68335 223.002 9.68335H222.771ZM223.348 8.28335C223.463 8.28335 223.463 8.28335 223.463 8.28335C223.579 8.28335 223.579 8.28335 223.579 8.28335C223.694 8.28335 223.694 8.28335 223.694 8.28335C223.771 8.28335 223.809 8.28335 223.809 8.28335C223.886 8.28335 223.963 8.28335 224.04 8.28335C224.04 8.28335 224.04 8.28335 224.155 8.28335C224.155 8.28335 224.155 8.16668 224.27 8.16668C224.27 8.16668 224.27 8.16668 224.27 8.05002C224.27 7.97224 224.27 7.89446 224.27 7.81668C224.27 7.70002 224.27 7.70002 224.155 7.58335C224.078 7.50557 223.963 7.46668 223.809 7.46668H223.233V8.16668C223.117 8.28335 223.233 8.28335 223.348 8.28335Z" fill="#E72867"/>
</g>
</g>
<defs>
<linearGradient id="paint0_linear_614_11388" x1="-961.546" y1="-988.716" x2="-1381.59" y2="-770.051" gradientUnits="userSpaceOnUse">
<stop stop-color="#4E1948"/>
<stop offset="1" stop-color="#1C1537"/>
</linearGradient>
<linearGradient id="paint1_linear_614_11388" x1="394.799" y1="-569.617" x2="686.295" y2="-1216.28" gradientUnits="userSpaceOnUse">
<stop stop-color="#A81255"/>
<stop offset="1" stop-color="#4E1948"/>
</linearGradient>
<linearGradient id="paint2_linear_614_11388" x1="4.08068" y1="1.65434" x2="385.545" y2="866.579" gradientUnits="userSpaceOnUse">
<stop stop-color="#E72867"/>
<stop offset="1" stop-color="#A81255"/>
</linearGradient>
<clipPath id="clip0_614_11388">
<rect width="226" height="42" fill="white"/>
</clipPath>
</defs>
</svg>
