<svg width="226" height="51" viewBox="0 0 226 51" fill="none" xmlns="http://www.w3.org/2000/svg">
<g clip-path="url(#clip0_614_11357)">
<mask id="mask0_614_11357" style="mask-type:luminance" maskUnits="userSpaceOnUse" x="-188" y="-2804" width="1515" height="5152">
<path d="M-187.226 -2803.89H1326.09V2347.11H-187.226V-2803.89Z" fill="white"/>
</mask>
<g mask="url(#mask0_614_11357)">
<path d="M64.8086 34.3696C64.8086 30.2674 67.9106 27.2739 72.2311 27.2739C74.5576 27.2739 76.5517 28.1609 77.8811 29.7131L75.7762 31.5978C74.89 30.4891 73.6713 29.9348 72.3419 29.9348C69.7939 29.9348 67.9106 31.8196 67.9106 34.3696C67.9106 37.0304 69.7939 38.8044 72.3419 38.8044C73.6713 38.8044 74.89 38.1391 75.7762 37.1413L77.8811 39.0261C76.5517 40.5783 74.5576 41.4652 72.2311 41.4652C67.9106 41.4652 64.8086 38.4718 64.8086 34.3696Z" fill="#474C55"/>
<path d="M79.9863 26.7195H82.9775V41.2434H79.9863V26.7195Z" fill="#474C55"/>
<path fill-rule="evenodd" clip-rule="evenodd" d="M85.3037 35.9216C85.3037 32.8173 87.741 30.489 91.0645 30.489C94.388 30.489 96.8253 32.8173 96.8253 35.9216C96.8253 39.1368 94.388 41.3542 91.0645 41.3542C87.741 41.3542 85.3037 39.1368 85.3037 35.9216ZM93.7233 35.9216C93.7233 34.1477 92.6155 33.039 91.0645 33.039C89.5135 33.039 88.4057 34.1477 88.4057 35.9216C88.4057 37.8064 89.5135 38.9151 91.0645 38.9151C92.6155 38.9151 93.7233 37.8064 93.7233 35.9216Z" fill="#474C55"/>
<path d="M109.676 30.7109V41.2435H106.796V40.024C105.91 40.9109 104.802 41.4653 103.472 41.3544C100.814 41.3544 99.041 39.9131 99.041 36.6979V30.7109H102.032V36.1435C102.032 37.9175 102.808 38.6935 104.137 38.6935C105.577 38.6935 106.574 37.8066 106.574 35.9218V30.7109H109.676Z" fill="#474C55"/>
<path fill-rule="evenodd" clip-rule="evenodd" d="M123.414 26.7195V41.2434H120.533V40.0238C119.758 40.9108 118.65 41.3543 117.21 41.3543C114.329 41.3543 112.003 39.2477 112.003 35.9217C112.003 32.5956 114.329 30.489 117.21 30.489C118.428 30.3782 119.647 30.9325 120.423 31.8195V26.7195H123.414ZM120.423 35.9217C120.423 34.1477 119.204 33.039 117.764 33.039C116.213 33.039 114.994 34.1477 114.994 35.9217C114.994 37.8064 116.213 38.9151 117.764 38.9151C119.204 38.9151 120.423 37.8064 120.423 35.9217Z" fill="#474C55"/>
<path fill-rule="evenodd" clip-rule="evenodd" d="M132.387 27.4956H138.591C143.023 27.4956 146.124 30.2673 146.124 34.3695C146.124 38.4717 143.023 41.2434 138.591 41.2434H132.387V27.4956ZM138.48 38.5826C141.139 38.5826 142.912 36.9195 142.912 34.3695C142.912 31.7086 141.139 30.0456 138.48 30.0456H135.6V38.5826H138.48Z" fill="#474C55"/>
<path fill-rule="evenodd" clip-rule="evenodd" d="M158.754 36.8086H150.777C151.11 38.139 152.218 38.9151 153.768 38.9151C154.766 39.026 155.763 38.5825 156.427 37.9173L158.089 39.6912C157.092 40.7999 155.652 41.3542 153.768 41.3542C150.113 41.3542 147.786 39.1368 147.786 35.9216C147.786 32.8173 150.113 30.489 153.325 30.489C156.427 30.489 158.865 32.5955 158.865 36.0325C158.865 36.2542 158.754 36.5868 158.754 36.8086ZM150.777 35.0347H155.873C155.652 33.5934 154.322 32.7064 152.882 32.9281C151.885 33.039 150.888 33.926 150.777 35.0347Z" fill="#474C55"/>
<path d="M171.272 30.7109L166.841 41.2435H163.739L159.308 30.7109H162.41L165.401 37.9175L168.392 30.7109H171.272Z" fill="#474C55"/>
<path d="M175.482 30.1564H171.051V27.6064H183.015V30.1564H178.584V41.2434H175.482V30.1564Z" fill="#474C55"/>
<path fill-rule="evenodd" clip-rule="evenodd" d="M182.794 35.9216C182.794 32.8173 185.342 30.489 188.666 30.489C191.989 30.489 194.426 32.8173 194.426 35.9216C194.426 39.1368 191.989 41.3542 188.666 41.3542C185.342 41.3542 182.794 39.1368 182.794 35.9216ZM191.324 35.9216C191.324 34.1477 190.216 33.039 188.666 33.039C187.115 33.039 185.896 34.1477 185.896 35.9216C185.896 37.8064 187.115 38.9151 188.666 38.9151C190.216 38.9151 191.324 37.8064 191.324 35.9216Z" fill="#474C55"/>
<path fill-rule="evenodd" clip-rule="evenodd" d="M195.867 35.9216C195.867 32.8173 198.304 30.489 201.627 30.489C204.951 30.489 207.388 32.8173 207.388 35.9216C207.388 39.1368 204.951 41.3542 201.627 41.3542C198.304 41.3542 195.867 39.1368 195.867 35.9216ZM204.286 35.9216C204.286 34.1477 203.178 33.039 201.627 33.039C200.076 33.039 198.969 34.1477 198.969 35.9216C198.969 37.8064 200.076 38.9151 201.627 38.9151C203.178 38.9151 204.286 37.8064 204.286 35.9216Z" fill="#474C55"/>
<path d="M209.604 26.7195H212.706V41.2434H209.604V26.7195Z" fill="#474C55"/>
<path d="M214.7 40.2455L215.697 38.0281C216.805 38.6934 218.135 39.026 219.353 39.026C220.793 39.026 221.236 38.6934 221.236 38.139C221.236 36.3651 214.922 38.139 214.922 33.926C214.922 31.9303 216.694 30.489 219.796 30.489C221.236 30.489 222.898 30.8216 223.895 31.4868L222.898 33.5934C221.901 33.039 220.904 32.8173 219.796 32.8173C218.467 32.8173 217.802 33.2608 217.802 33.8151C217.802 35.589 224.228 33.8151 224.228 38.0281C224.228 39.9129 222.344 41.3542 219.242 41.3542C217.47 41.3542 215.697 40.9108 214.7 40.2455Z" fill="#474C55"/>
<path d="M73.339 15.7434V16.9629H67.7998V9.53467H73.2282V10.6434H69.1292V12.5281H72.7851V13.6368H69.1292V15.7434H73.339Z" fill="#3A85B6"/>
<path d="M87.187 13.1934C87.187 10.976 88.8488 9.31299 91.1753 9.31299C92.2831 9.31299 93.3909 9.75647 94.0556 10.6434L93.1694 11.4195C92.7262 10.8652 91.9507 10.6434 91.1753 10.6434C89.8458 10.5326 88.6272 11.6412 88.6272 12.9717C88.6272 13.0826 88.6272 13.0826 88.6272 13.1934C88.5164 14.6347 89.6243 15.7434 91.0645 15.8543H91.1753C91.9507 15.8543 92.7262 15.5217 93.1694 14.9673L94.0556 15.7434C93.3909 16.6304 92.2831 17.0739 91.1753 16.963C88.8488 16.963 87.187 15.4108 87.187 13.1934Z" fill="#3A85B6"/>
<path d="M108.236 9.53467H109.677V15.7434H113.554V16.9629H108.236V9.53467Z" fill="#3A85B6"/>
<path d="M127.513 9.53467H128.842V16.9629H127.513V9.53467Z" fill="#3A85B6"/>
<path fill-rule="evenodd" clip-rule="evenodd" d="M149.891 12.0847C149.891 13.7477 148.673 14.7455 146.789 14.7455H145.017V16.9629H143.688V9.53467H146.789C148.673 9.53467 149.891 10.5325 149.891 12.0847ZM148.562 12.0847C148.562 11.1977 147.897 10.6434 146.679 10.6434H145.128V13.526H146.679C147.897 13.6368 148.562 13.0825 148.562 12.0847Z" fill="#3A85B6"/>
<path d="M163.628 16.076L164.072 15.0782C164.847 15.6326 165.623 15.8543 166.509 15.8543C167.727 15.8543 168.171 15.5217 168.171 14.9673C168.171 13.3043 163.739 14.3021 163.739 11.6412C163.739 10.4217 164.736 9.31299 166.73 9.31299C167.617 9.31299 168.503 9.6456 169.168 10.0891L168.725 11.0869C168.171 10.7543 167.395 10.5326 166.73 10.5326C165.512 10.5326 165.069 10.976 165.069 11.5304C165.069 13.0826 169.5 12.0847 169.5 14.7456C169.5 15.9652 168.614 16.963 166.509 16.963C165.401 16.963 164.182 16.6304 163.628 16.076Z" fill="#3A85B6"/>
<path d="M189.33 15.7434V16.9629H183.68V9.53467H189.109V10.6434H185.12V12.5281H188.665V13.6368H185.12V15.7434H189.33Z" fill="#3A85B6"/>
<path d="M57.054 31.5979C57.054 31.4501 57.054 31.3023 57.054 31.1545C56.8324 35.811 53.3981 39.5805 48.7452 40.2458C56.5001 29.4914 54.1736 14.4132 43.4275 6.65229C32.6814 -1.10858 17.6148 1.21968 9.74909 11.974C3.65595 20.511 3.65595 31.9306 9.85987 40.3566H7.42262C4.09909 40.3566 1.32948 37.8066 1.10791 34.3697C1.10791 34.4806 1.10791 34.7023 1.10791 34.8132C1.10791 38.361 3.9883 41.2436 7.5334 41.2436H10.5246C18.8334 51.5545 34.0108 53.2175 44.4246 44.9023C45.754 43.7936 46.9726 42.574 48.0805 41.2436C53.1765 40.911 57.054 36.6979 57.054 31.5979Z" fill="#3A85B6"/>
<path d="M47.4158 20.9544C45.9756 20.9544 44.6461 21.287 43.4275 21.8414C43.5752 22.5805 43.6491 23.3197 43.6491 24.0588C43.6491 26.6088 42.652 28.937 40.7687 30.6001C44.0922 27.0523 43.8707 21.287 40.2148 17.961C36.7805 14.7457 31.5736 14.7457 28.1393 17.961C31.4628 14.3023 37.1128 14.0805 40.7687 17.4066C41.9873 18.5153 42.8736 19.9566 43.3167 21.5088C44.4246 20.8436 45.754 20.511 47.0834 20.2892C45.2001 11.3088 36.4481 5.4327 27.3638 7.20661C21.2707 8.42617 16.2854 13.0827 14.6236 19.1805C17.1716 19.1805 19.4981 20.1783 21.3814 21.9523C16.8393 18.5153 10.4138 19.4023 6.86869 23.9479C4.32066 27.4957 4.09909 32.374 6.53634 35.9218C4.76379 33.8153 3.9883 31.0436 4.32066 28.2718C2.21575 29.3805 1.10791 31.487 1.10791 34.037C1.10791 37.5849 3.9883 40.3566 7.5334 40.3566H47.4158C52.7334 40.3566 57.054 36.0327 57.054 30.711C57.054 25.3892 52.7334 20.9544 47.4158 20.9544Z" fill="white"/>
<path d="M7.86584 14.0804C14.2913 2.8826 28.1394 -1.66305 39.9933 3.65869C39.5502 3.43695 39.2178 3.21521 38.8854 2.99347C26.6992 -3.54783 11.6325 0.997823 5.09623 13.0826C-1.32926 24.8348 2.65898 39.5804 14.1805 46.3435C14.6975 46.6391 15.2145 46.9348 15.7315 47.2304C4.87466 39.913 1.44035 25.5 7.86584 14.0804Z" fill="#FDB816"/>
</g>
</g>
<defs>
<clipPath id="clip0_614_11357">
<rect width="226" height="51" fill="white"/>
</clipPath>
</defs>
</svg>
