<svg width="226" height="51" viewBox="0 0 226 51" fill="none" xmlns="http://www.w3.org/2000/svg">
<g clip-path="url(#clip0_1880_3514)">
<mask id="mask0_1880_3514" style="mask-type:luminance" maskUnits="userSpaceOnUse" x="-188" y="-2804" width="1515" height="5152">
<path d="M-187.226 -2803.89H1326.09V2347.11H-187.226V-2803.89Z" fill="white"/>
</mask>
<g mask="url(#mask0_1880_3514)">
<path d="M64.8086 34.3691C64.8086 30.2669 67.9106 27.2734 72.2311 27.2734C74.5576 27.2734 76.5517 28.1604 77.8811 29.7126L75.7762 31.5974C74.89 30.4887 73.6713 29.9343 72.3419 29.9343C69.7939 29.9343 67.9106 31.8191 67.9106 34.3691C67.9106 37.03 69.7939 38.8039 72.3419 38.8039C73.6713 38.8039 74.89 38.1387 75.7762 37.1408L77.8811 39.0256C76.5517 40.5778 74.5576 41.4647 72.2311 41.4647C67.9106 41.4647 64.8086 38.4713 64.8086 34.3691Z" fill="#474C55"/>
<path d="M79.9863 26.7207H82.9775V41.2446H79.9863V26.7207Z" fill="#474C55"/>
<path fill-rule="evenodd" clip-rule="evenodd" d="M85.3037 35.9228C85.3037 32.8185 87.741 30.4902 91.0645 30.4902C94.388 30.4902 96.8253 32.8185 96.8253 35.9228C96.8253 39.1381 94.388 41.3555 91.0645 41.3555C87.741 41.3555 85.3037 39.1381 85.3037 35.9228ZM93.7233 35.9228C93.7233 34.1489 92.6155 33.0402 91.0645 33.0402C89.5135 33.0402 88.4057 34.1489 88.4057 35.9228C88.4057 37.8076 89.5135 38.9163 91.0645 38.9163C92.6155 38.9163 93.7233 37.8076 93.7233 35.9228Z" fill="#474C55"/>
<path d="M109.676 30.7109V41.2435H106.796V40.024C105.91 40.9109 104.802 41.4653 103.472 41.3544C100.814 41.3544 99.041 39.9131 99.041 36.6979V30.7109H102.032V36.1435C102.032 37.9175 102.808 38.6935 104.137 38.6935C105.577 38.6935 106.574 37.8066 106.574 35.9218V30.7109H109.676Z" fill="#474C55"/>
<path fill-rule="evenodd" clip-rule="evenodd" d="M123.414 26.7207V41.2446H120.533V40.025C119.758 40.912 118.65 41.3555 117.21 41.3555C114.329 41.3555 112.003 39.249 112.003 35.9229C112.003 32.5968 114.329 30.4903 117.21 30.4903C118.428 30.3794 119.647 30.9337 120.423 31.8207V26.7207H123.414ZM120.423 35.9229C120.423 34.149 119.204 33.0403 117.764 33.0403C116.213 33.0403 114.994 34.149 114.994 35.9229C114.994 37.8077 116.213 38.9164 117.764 38.9164C119.204 38.9164 120.423 37.8077 120.423 35.9229Z" fill="#474C55"/>
<path fill-rule="evenodd" clip-rule="evenodd" d="M132.388 27.4961H138.592C143.023 27.4961 146.125 30.2678 146.125 34.37C146.125 38.4722 143.023 41.2439 138.592 41.2439H132.388V27.4961ZM138.481 38.583C141.14 38.583 142.912 36.92 142.912 34.37C142.912 31.7091 141.14 30.0461 138.481 30.0461H135.6V38.583H138.481Z" fill="#474C55"/>
<path fill-rule="evenodd" clip-rule="evenodd" d="M158.754 36.8098H150.777C151.11 38.1402 152.218 38.9163 153.768 38.9163C154.766 39.0272 155.763 38.5837 156.427 37.9185L158.089 39.6924C157.092 40.8011 155.652 41.3555 153.768 41.3555C150.113 41.3555 147.786 39.1381 147.786 35.9228C147.786 32.8185 150.113 30.4902 153.325 30.4902C156.427 30.4902 158.865 32.5968 158.865 36.0337C158.865 36.2555 158.754 36.5881 158.754 36.8098ZM150.777 35.0359H155.873C155.652 33.5946 154.322 32.7076 152.882 32.9294C151.885 33.0402 150.888 33.9272 150.777 35.0359Z" fill="#474C55"/>
<path d="M171.272 30.7109L166.841 41.2435H163.739L159.308 30.7109H162.41L165.401 37.9175L168.392 30.7109H171.272Z" fill="#474C55"/>
<path d="M175.482 30.1574H171.051V27.6074H183.015V30.1574H178.584V41.2444H175.482V30.1574Z" fill="#474C55"/>
<path fill-rule="evenodd" clip-rule="evenodd" d="M182.794 35.9228C182.794 32.8185 185.342 30.4902 188.666 30.4902C191.989 30.4902 194.426 32.8185 194.426 35.9228C194.426 39.1381 191.989 41.3555 188.666 41.3555C185.342 41.3555 182.794 39.1381 182.794 35.9228ZM191.324 35.9228C191.324 34.1489 190.216 33.0402 188.666 33.0402C187.115 33.0402 185.896 34.1489 185.896 35.9228C185.896 37.8076 187.115 38.9163 188.666 38.9163C190.216 38.9163 191.324 37.8076 191.324 35.9228Z" fill="#474C55"/>
<path fill-rule="evenodd" clip-rule="evenodd" d="M195.866 35.9228C195.866 32.8185 198.303 30.4902 201.627 30.4902C204.951 30.4902 207.388 32.8185 207.388 35.9228C207.388 39.1381 204.951 41.3555 201.627 41.3555C198.303 41.3555 195.866 39.1381 195.866 35.9228ZM204.286 35.9228C204.286 34.1489 203.178 33.0402 201.627 33.0402C200.076 33.0402 198.968 34.1489 198.968 35.9228C198.968 37.8076 200.076 38.9163 201.627 38.9163C203.178 38.9163 204.286 37.8076 204.286 35.9228Z" fill="#474C55"/>
<path d="M209.604 26.7207H212.705V41.2446H209.604V26.7207Z" fill="#474C55"/>
<path d="M214.7 40.2468L215.697 38.0294C216.805 38.6946 218.135 39.0272 219.353 39.0272C220.793 39.0272 221.236 38.6946 221.236 38.1402C221.236 36.3663 214.922 38.1402 214.922 33.9272C214.922 31.9315 216.694 30.4902 219.796 30.4902C221.236 30.4902 222.898 30.8228 223.895 31.4881L222.898 33.5946C221.901 33.0402 220.904 32.8185 219.796 32.8185C218.467 32.8185 217.802 33.262 217.802 33.8163C217.802 35.5902 224.228 33.8163 224.228 38.0294C224.228 39.9141 222.344 41.3555 219.242 41.3555C217.47 41.3555 215.697 40.912 214.7 40.2468Z" fill="#474C55"/>
<path d="M73.339 15.7439V16.9634H67.7998V9.53516H73.2282V10.6439H69.1292V12.5286H72.7851V13.6373H69.1292V15.7439H73.339Z" fill="#3A85B6"/>
<path d="M87.1875 13.1949C87.1875 10.9775 88.8493 9.31445 91.1757 9.31445C92.2836 9.31445 93.3914 9.75793 94.0561 10.6449L93.1699 11.421C92.7267 10.8666 91.9512 10.6449 91.1757 10.6449C89.8463 10.534 88.6277 11.6427 88.6277 12.9731C88.6277 13.084 88.6277 13.084 88.6277 13.1949C88.5169 14.6362 89.6248 15.7449 91.065 15.8558H91.1757C91.9512 15.8558 92.7267 15.5231 93.1699 14.9688L94.0561 15.7449C93.3914 16.6318 92.2836 17.0753 91.1757 16.9645C88.8493 16.9645 87.1875 15.4123 87.1875 13.1949Z" fill="#3A85B6"/>
<path d="M108.236 9.53516H109.677V15.7439H113.554V16.9634H108.236V9.53516Z" fill="#3A85B6"/>
<path d="M127.513 9.53516H128.842V16.9634H127.513V9.53516Z" fill="#3A85B6"/>
<path fill-rule="evenodd" clip-rule="evenodd" d="M149.891 12.0852C149.891 13.7482 148.673 14.746 146.789 14.746H145.017V16.9634H143.688V9.53516H146.789C148.673 9.53516 149.891 10.533 149.891 12.0852ZM148.562 12.0852C148.562 11.1982 147.897 10.6439 146.679 10.6439H145.128V13.5265H146.679C147.897 13.6373 148.562 13.083 148.562 12.0852Z" fill="#3A85B6"/>
<path d="M163.629 16.0775L164.072 15.0797C164.848 15.634 165.623 15.8558 166.509 15.8558C167.728 15.8558 168.171 15.5231 168.171 14.9688C168.171 13.3058 163.74 14.3036 163.74 11.6427C163.74 10.4231 164.737 9.31445 166.731 9.31445C167.617 9.31445 168.503 9.64706 169.168 10.0905L168.725 11.0884C168.171 10.7558 167.396 10.534 166.731 10.534C165.512 10.534 165.069 10.9775 165.069 11.5318C165.069 13.084 169.5 12.0862 169.5 14.7471C169.5 15.9666 168.614 16.9645 166.509 16.9645C165.401 16.9645 164.183 16.6318 163.629 16.0775Z" fill="#3A85B6"/>
<path d="M189.331 15.7439V16.9634H183.681V9.53516H189.109V10.6439H185.121V12.5286H188.666V13.6373H185.121V15.7439H189.331Z" fill="#3A85B6"/>
<path d="M57.0535 31.5987C57.0535 31.4508 57.0535 31.303 57.0535 31.1552C56.8319 35.8117 53.3976 39.5813 48.7447 40.2465C56.4996 29.4922 54.1731 14.4139 43.427 6.65302C32.681 -1.10785 17.6143 1.22042 9.7486 11.9748C3.65546 20.5117 3.65546 31.9313 9.85938 40.3574H7.42213C4.0986 40.3574 1.32899 37.8074 1.10742 34.3704C1.10742 34.4813 1.10742 34.703 1.10742 34.8139C1.10742 38.3617 3.98781 41.2443 7.53291 41.2443H10.5241C18.8329 51.5552 34.0104 53.2182 44.4241 44.903C45.7535 43.7943 46.9721 42.5748 48.08 41.2443C53.1761 40.9117 57.0535 36.6987 57.0535 31.5987Z" fill="#3A85B6"/>
<path d="M47.4153 20.9544C45.9751 20.9544 44.6457 21.287 43.427 21.8414C43.5747 22.5805 43.6486 23.3197 43.6486 24.0588C43.6486 26.6088 42.6515 28.937 40.7682 30.6001C44.0917 27.0523 43.8702 21.287 40.2143 17.961C36.78 14.7457 31.5731 14.7457 28.1388 17.961C31.4623 14.3023 37.1123 14.0805 40.7682 17.4066C41.9868 18.5153 42.8731 19.9566 43.3162 21.5088C44.4241 20.8436 45.7535 20.511 47.0829 20.2892C45.1996 11.3088 36.4476 5.4327 27.3633 7.20661C21.2702 8.42617 16.2849 13.0827 14.6231 19.1805C17.1711 19.1805 19.4976 20.1783 21.381 21.9523C16.8388 18.5153 10.4133 19.4023 6.86821 23.9479C4.32017 27.4957 4.0986 32.374 6.53585 35.9218C4.7633 33.8153 3.98781 31.0436 4.32017 28.2718C2.21527 29.3805 1.10742 31.487 1.10742 34.037C1.10742 37.5849 3.98781 40.3566 7.53291 40.3566H47.4153C52.7329 40.3566 57.0535 36.0327 57.0535 30.711C57.0535 25.3892 52.7329 20.9544 47.4153 20.9544Z" fill="white"/>
<path d="M7.86584 14.0817C14.2913 2.88383 28.1394 -1.66183 39.9933 3.65991C39.5502 3.43817 39.2178 3.21643 38.8854 2.99469C26.6992 -3.54661 11.6325 0.999044 5.09623 13.0838C-1.32926 24.836 2.65898 39.5816 14.1805 46.3447C14.6975 46.6403 15.2145 46.936 15.7315 47.2316C4.87466 39.9143 1.44035 25.5012 7.86584 14.0817Z" fill="#FDB816"/>
</g>
</g>
<defs>
<clipPath id="clip0_1880_3514">
<rect width="226" height="51" fill="white"/>
</clipPath>
</defs>
</svg>
