<svg width="226" height="62" viewBox="0 0 226 62" fill="none" xmlns="http://www.w3.org/2000/svg">
<g clip-path="url(#clip0_614_11407)">
<mask id="mask0_614_11407" style="mask-type:luminance" maskUnits="userSpaceOnUse" x="-1103" y="-2795" width="1515" height="5145">
<path d="M-1102.3 -2794.43H411.01V2349.36H-1102.3V-2794.43Z" fill="white"/>
</mask>
<g mask="url(#mask0_614_11407)">
<path d="M68.4645 52.3678C69.0184 53.2535 70.0155 53.807 71.3449 53.807C72.8959 53.807 75.0008 52.8106 75.0008 49.932V35.4285H78.3243V50.2642C78.3243 54.582 74.89 57.1285 71.4557 57.1285C68.9076 57.1285 67.0243 55.9106 65.8057 54.2499L68.4645 52.3678Z" fill="#FDB940"/>
<path fill-rule="evenodd" clip-rule="evenodd" d="M93.5022 52.1463H85.4149L83.7532 56.907H80.3188L88.0737 35.4285H90.8434L98.5983 56.907H95.1639L93.5022 52.1463ZM92.6159 49.157L89.5139 39.857L86.3012 49.2678H92.6159V49.157Z" fill="#FDB940"/>
<path d="M100.924 35.4285H104.248V46.4999L113.111 35.4285H116.988L110.009 43.8428L117.653 56.907H113.775L108.015 46.3892L104.248 50.3749V56.907H100.924V35.4285Z" fill="#FDB940"/>
<path fill-rule="evenodd" clip-rule="evenodd" d="M130.947 52.1463H122.86L121.198 56.907H117.764L125.519 35.4285H128.288L136.043 56.907H132.609L130.947 52.1463ZM130.061 49.157L126.959 39.857H126.848L123.746 49.2678H130.061V49.157Z" fill="#FDB940"/>
<path fill-rule="evenodd" clip-rule="evenodd" d="M138.37 35.4285H146.789C148.562 35.4285 150.002 35.8713 151.11 36.8678C152.328 37.8642 153.215 39.5249 153.215 41.5178C153.215 44.2856 151.664 46.4999 149.116 47.3856L154.101 56.907H150.224L145.792 47.8285H141.693V56.907H138.37V35.4285ZM146.568 44.8392C149.005 44.8392 150.224 43.2892 150.224 41.5178C150.224 40.2999 149.78 39.5249 149.226 38.9713C148.562 38.5285 147.897 38.307 146.789 38.307H141.693V44.8392H146.568Z" fill="#FDB940"/>
<path d="M159.973 38.307H153.99V35.4285H169.057V38.307H163.075V56.907H159.862V38.307H159.973Z" fill="#FDB940"/>
<path fill-rule="evenodd" clip-rule="evenodd" d="M180.135 52.1463H172.048L170.386 56.907H166.841L174.707 35.4285H177.366L185.231 56.907H181.797L180.135 52.1463ZM179.138 49.157L176.036 39.857L172.934 49.2678H179.138V49.157Z" fill="#FDB940"/>
<path d="M194.759 35.4285H208.496V38.5285H198.082V44.6178H206.945V47.4963H198.082V53.807H208.496V56.907H194.759V35.4285Z" fill="#FDB940"/>
<path d="M211.598 35.4285H225.225V38.5285H214.811V44.6178H223.784V47.4963H214.811V53.807H225.225V56.907H211.598V35.4285Z" fill="#FDB940"/>
<path d="M61.3746 0L45.754 17.05C45.5324 25.6857 43.5383 38.75 34.2324 50.7071L47.8589 54.0286C70.5697 32.7714 61.3746 0 61.3746 0Z" fill="#FDB940"/>
<path d="M45.7539 17.0501C45.8647 11.0715 45.0892 7.19653 45.0892 7.19653L10.7461 44.9501L34.2324 50.7072L18.6118 46.7215L45.7539 17.0501Z" fill="#FEB322"/>
<path d="M18.6118 46.7215L34.3432 50.7072C43.5383 38.75 45.5324 25.7965 45.754 17.05L18.6118 46.7215Z" fill="#F98200"/>
<path d="M40.4363 54.5821C41.7657 54.5821 43.0951 54.6559 44.4245 54.8035L0 43.8428C0 43.8428 8.30882 46.6106 18.2794 61.4463C23.4863 57.2392 31.4627 54.5821 40.4363 54.5821Z" fill="#1B208B"/>
<path fill-rule="evenodd" clip-rule="evenodd" d="M183.237 39.1927C182.942 39.0451 182.683 38.7868 182.462 38.4177C182.314 38.1225 182.24 37.7904 182.24 37.4213C182.24 36.9785 182.314 36.6094 182.462 36.3142C182.683 35.9451 182.942 35.6868 183.237 35.5392C183.607 35.3177 183.976 35.207 184.345 35.207C184.714 35.207 185.084 35.3177 185.453 35.5392C185.748 35.6868 186.007 35.9451 186.228 36.3142C186.376 36.6094 186.45 36.9785 186.45 37.4213C186.45 37.7904 186.376 38.1225 186.228 38.4177C186.007 38.7499 185.785 38.9713 185.453 39.1927C185.084 39.4142 184.714 39.5249 184.345 39.5249C183.976 39.5249 183.607 39.4142 183.237 39.1927ZM185.564 38.6392C185.859 38.3439 186.007 37.938 186.007 37.4213C186.007 37.0892 186.007 36.757 185.785 36.4249C185.564 36.2035 185.453 35.982 185.231 35.8713C184.899 35.6499 184.677 35.6499 184.345 35.6499C183.828 35.6499 183.422 35.7975 183.127 36.0927C182.757 36.4618 182.573 36.9047 182.573 37.4213C182.573 37.938 182.757 38.3439 183.127 38.6392C183.422 38.9344 183.828 39.082 184.345 39.082C184.899 39.082 185.231 38.9713 185.564 38.6392ZM184.788 38.4177L184.456 37.4213C184.456 37.4951 184.456 37.4951 184.456 37.4213C184.456 37.4213 184.419 37.4213 184.345 37.4213H184.013H183.902V38.307C183.902 38.3808 183.902 38.4177 183.902 38.4177H183.57C183.57 38.4177 183.57 38.3808 183.57 38.307V36.3142C183.57 36.2404 183.57 36.2035 183.57 36.2035H184.567C184.788 36.2035 184.936 36.2773 185.01 36.4249C185.158 36.4987 185.231 36.6463 185.231 36.8677C185.231 37.0892 185.084 37.2737 184.788 37.4213C184.788 37.3475 184.788 37.3475 184.788 37.4213L185.121 38.4177H184.788ZM184.788 36.8677C184.788 36.7201 184.641 36.6463 184.345 36.6463H183.902V37.0892C183.902 37.163 183.939 37.1999 184.013 37.1999H184.456C184.677 37.1999 184.788 37.0892 184.788 36.8677Z" fill="#FDB940"/>
</g>
</g>
<defs>
<clipPath id="clip0_614_11407">
<rect width="226" height="62" fill="white"/>
</clipPath>
</defs>
</svg>
