<svg width="87" height="52" viewBox="0 0 87 52" fill="none" xmlns="http://www.w3.org/2000/svg">
<g clip-path="url(#clip0_614_11428)">
<mask id="mask0_614_11428" style="mask-type:luminance" maskUnits="userSpaceOnUse" x="-779" y="-2526" width="1366" height="4646">
<path d="M-779 -2526H587V2120H-779V-2526Z" fill="white"/>
</mask>
<g mask="url(#mask0_614_11428)">
<path fill-rule="evenodd" clip-rule="evenodd" d="M17.8999 9.5H23.9999V16.2H17.8999V9.5Z" fill="#37474F"/>
<path d="M29.0998 45.1999H23.9998V21.8999C23.9998 21.0999 23.2998 20.3999 22.3998 20.3999H16.1998V26.5999H17.7998V45.1999H12.7998V51.3999H34.4998C32.1998 49.8999 30.2998 47.7999 29.0998 45.1999Z" fill="#37474F"/>
<path d="M86.9999 26.6V20.4H76.0999V9.5H69.8999V20.4H59.3999C61.6999 21.9 63.5999 24.1 64.7999 26.6H69.8999V39C69.8999 45.8 75.4999 51.4 82.2999 51.4H86.9999V45.2H82.2999C78.8999 45.2 76.0999 42.4 76.0999 39V26.6H86.9999Z" fill="#37474F"/>
<path fill-rule="evenodd" clip-rule="evenodd" d="M62.4999 32.7999V38.9999C62.4999 45.7999 56.8999 51.3999 50.0999 51.3999H43.8999C36.9999 51.3999 31.3999 45.7999 31.3999 38.9999V32.7999C31.3999 25.9999 36.9999 20.3999 43.8999 20.3999H50.0999C56.8999 20.3999 62.3999 25.9999 62.4999 32.7999ZM56.2999 32.7999C56.2999 29.3999 53.4999 26.5999 50.0999 26.5999H43.8999C40.3999 26.5999 37.5999 29.3999 37.5999 32.7999V38.9999C37.5999 42.3999 40.3999 45.1999 43.8999 45.1999H50.0999C53.4999 45.1999 56.2999 42.3999 56.2999 38.9999V32.7999Z" fill="#37474F"/>
<path fill-rule="evenodd" clip-rule="evenodd" d="M2.5 47.7999C2.5 45.7333 3.56667 44.7 5.7 44.7C6 44.7 6.3 44.7 6.6 44.7V49.2999C7.6 49.2999 8.06667 48.6 8 47.2C8 46.5 8 45.7999 7.8 45.0999H9.2C9.33333 45.6999 9.4 46.4333 9.4 47.2999C9.4 49.8333 8.23333 51.0999 5.9 51.0999C3.6 51.0999 2.5 49.9999 2.5 47.7999ZM5.4 49.2999V46.4H5.3C4.36667 46.4 3.9 46.8666 3.9 47.7999C3.9 48.7333 4.4 49.2333 5.4 49.2999Z" fill="#F69322"/>
<path d="M9.3 38.2C9.43333 38.8 9.5 39.4 9.5 40C9.5 42.4 8.3 43.7 5.9 43.7C3.63333 43.7 2.5 42.4666 2.5 40C2.5 39.4 2.6 38.8 2.7 38.2H4.1C3.96667 38.8 3.9 39.3666 3.9 39.9C3.9 41.3 4.56667 42 5.9 42C7.36667 42 8.1 41.3 8.1 39.9C8.1 39.3666 8.03333 38.8 7.9 38.2H9.3Z" fill="#F69322"/>
<path d="M0 35.3H9.5V37H0V35.3Z" fill="#F69322"/>
<path d="M0 31.8999H1.4V33.5999H0V31.8999ZM2.5 31.8999H9.4V33.5999H2.5V31.8999Z" fill="#F69322"/>
<path fill-rule="evenodd" clip-rule="evenodd" d="M2.8 30.2C2.6 29.3 2.5 28.2999 2.5 27.2999C2.5 24.9666 3.6 23.7666 5.8 23.7C8.26667 23.7 9.5 24.8333 9.5 27.1C9.5 27.5666 9.36667 28.0333 9.1 28.5H12V30.2H2.8ZM7.6 28.5C7.86667 28.0333 8 27.5666 8 27.1C8 26.0333 7.26667 25.5 5.8 25.5C4.53333 25.5 3.9 26.0666 3.9 27.2C3.9 27.7333 3.93333 28.1666 4 28.5H7.6Z" fill="#F69322"/>
<path d="M9.1 22.3999H7.7C7.96667 21.5999 8.1 20.7332 8.1 19.7999C8.1 18.9999 7.86667 18.5999 7.4 18.5999C7 18.5999 6.8 18.8999 6.8 19.3999V20.5999C6.8 21.9999 6.1 22.7332 4.7 22.7999C3.23333 22.7999 2.5 21.7666 2.5 19.6999C2.5 18.7666 2.63333 17.9332 2.9 17.1999H4.4C4.1 17.9999 3.9 18.7999 3.9 19.6999C3.9 20.6999 4.13333 21.1999 4.6 21.1999C5.1 21.1999 5.3 20.8999 5.3 20.2999V19.1999C5.3 17.6666 6 16.8999 7.4 16.8999C8.86667 16.8999 9.56667 17.8999 9.5 19.8999C9.5 20.7999 9.4 21.6999 9.1 22.3999Z" fill="#F69322"/>
<path fill-rule="evenodd" clip-rule="evenodd" d="M2.5 12.7C2.5 10.5667 3.56667 9.5 5.7 9.5C6 9.5 6.3 9.6 6.6 9.6V14.2C7.6 14.2 8.06667 13.4667 8 12C8 11.3 8 10.7 7.8 9.9H9.2C9.33333 10.5667 9.4 11.3333 9.4 12.2C9.4 14.7333 8.23333 16 5.9 16C3.6 16 2.5 14.9 2.5 12.7ZM5.4 14.2V11.3H5.3C4.36667 11.3 3.9 11.7667 3.9 12.7C3.9 13.6333 4.4 14.1333 5.4 14.2Z" fill="#F69322"/>
<path fill-rule="evenodd" clip-rule="evenodd" d="M58.6002 12.8C55.4002 12.8 52.7002 10.2 52.7002 6.9C52.7002 3.7 55.4002 1 58.6002 1C61.9002 1 64.5002 3.7 64.5002 6.9C64.5002 10.2 61.9002 12.8 58.6002 12.8Z" fill="#F69322"/>
<path fill-rule="evenodd" clip-rule="evenodd" d="M44.2001 15.5C42.7001 15.5 41.6001 14.4 41.6001 12.9C41.6001 11.5 42.7001 10.3 44.2001 10.3C45.7001 10.3 46.8001 11.5 46.8001 12.9C46.8001 14.4 45.7001 15.5 44.2001 15.5Z" fill="#F69322"/>
<path fill-rule="evenodd" clip-rule="evenodd" d="M37.0001 7.8C35.1001 7.8 33.6001 6.2 33.6001 4.4C33.6001 2.5 35.1001 1 37.0001 1C38.8001 1 40.3001 2.5 40.3001 4.4C40.3001 6.2 38.8001 7.8 37.0001 7.8Z" fill="#F69322"/>
<path fill-rule="evenodd" clip-rule="evenodd" d="M45.4001 13.6L44.6001 14.3L36.6001 4.7L37.4001 4L45.4001 13.6Z" fill="#F69322"/>
<path fill-rule="evenodd" clip-rule="evenodd" d="M58.8998 7.3999L45.1998 13.3999L44.7998 12.3999L58.3998 6.3999L58.8998 7.3999Z" fill="#F69322"/>
</g>
</g>
<defs>
<clipPath id="clip0_614_11428">
<rect width="87" height="52" fill="white"/>
</clipPath>
</defs>
</svg>
